<?xml version="1.0" encoding="utf-8"?>

<!DOCTYPE svg PUBLIC "-//W3C//DTD SVG 1.1//EN" "http://www.w3.org/Graphics/SVG/1.1/DTD/svg11.dtd">
<svg version="1.1" id="Layer_1" xmlns="http://www.w3.org/2000/svg" xmlns:xlink="http://www.w3.org/1999/xlink" x="0px" y="0px"
	 viewBox="0 0 1432 1920" enable-background="new 0 0 1432 1920" xml:space="preserve">
<g>
	<path fill="#6A1D17" stroke="#6A1D17" stroke-width="0.3" d="M699.46,475.71c9.0099-3.46,17.43-8.45,24.56-14.98
		c5,8.58,4.29,18.95,2.07,28.26c10.16-3.97,20.97-6.37,31.91-6.45c8.05-0.03,16.1,1.26,23.75,3.76
		c11.65,3.39,21.21,11.07,31.88,16.5c7.19,3.71,14.53,7.13,22.04,10.14c11.03,4.37,22.39,7.91,34.01,10.34
		c1.85,0.3799,3.69,0.75,5.56,1.15c-2.59,4.89-6.66,8.78-11.25,11.78c-2.8,1.7-5.78,3.05-8.78,4.32
		c1.71,1.0699,3.44,2.12,5.24,3.0699c7.62,3.78,16.33,5.78,24.81,4.21c6.73-1.3,12.71-4.82,18.14-8.88
		c-5.41,11.87-13.71,23.1-25.81,28.74c9.49,4.64,18.28,11.16,24.18,20.06c1.78,2.69,3.25,5.57,4.64,8.49
		c-2.91-0.85-5.8199-1.73-8.79-2.29c-5.76-1-11.7-0.24-17.13,1.85c2.44,4.31,4.78,8.67,6.94,13.1299
		c3.68,7.59,6.95,15.3701,9.72,23.34c4.0699,11.78,7.04,23.95,8.67,36.32c1.14,8.8,1.74,17.7,1.58,26.58
		c-0.13,7.61-0.72,15.21-1.63,22.7599c-3.3-1.55-6.9-2.25-10.49-2.67c1.27-32.08-8.54-63.7-24.05-91.51
		c-3.56-6.14-6.65-13.27-13.18-16.83c-5.2-2.95-11.68-1.35-16.33,1.92c-5.12,3.73-11.23,5.61-17.11,7.75
		c-14.54,4.91-29.8,7.86-45.14,8.46c-4.6899-1.51-9.6299-0.92-14.45-1.03c-2.56-0.12-5.08,0.29-7.51,1.02
		c-30.56-1.35-60.44-9.31-89.22-19.34c-4.78-1.53-8.79-4.65-13.2599-6.84c-11.09-5.73-23.42-9.64-36.01-9.29
		c-8.43,0.2-16.79,2.38-24.28,6.23c-5.76,3.0099-11.76,5.8799-16.35,10.6c-6.71,6.45-10.56,15.27-12.6,24.23
		c-1.1-3.51,0.2401-7.08,0.56-10.59c0.57-3.81,0.17-7.97,2.29-11.36c6.84-11.18,16.45-21.17,28.73-26.25
		c14.99-5.7,31.76-3.73,46.53,1.6801c8.72,2.8199,16.68,7.45,25.22,10.75c35.54,14.43,74.37,22.62,112.79,18.42
		c19.44-1.97,38.5-7.1,56.46-14.75c7.33-2.33,15.48-3.34,22.9-0.82c4.18,1.42,7.53,4.38,10.85,7.17c-0.04-2.63,0.23-5.47-1.17-7.82
		c-1.37-2.22-3.28-4.0099-5.01-5.92c8.33-1.92,16.77-3.48,25.33-3.81c-4.68-3.61-10.33-5.57-15.69-7.9
		c-12.97-5.54-26.9-8.47-40.91-9.75c1.97-4.54,7.12-5.98,11.26-7.85c5.04-2.31,10.76-3.11,15.34-6.37
		c-17.37-4.03-34.98-7.22-51.97-12.76c-4.13-1.35-8.13-3.19-11.49-5.98c0.92-0.7,1.68-1.71,2.84-2.06
		c12.34-2.62,25.0699-2.36,37.53-0.76c-5.91-4.04-12.5-6.9-18.82-10.21c-39.35-19.24-83.44-30.51-127.42-27.04
		c-23.74,1.48-46.91,7.71-69.05,16.19c-0.24-8.43,7.79-12.95,14.15-16.55c-17.1,0.15-34.7599,4.61-48.29,15.47
		c-7.6,5.73-13.75,13.19-18.65,21.32c-3.68,5.71-4.22,13.01-8.8199,18.21c-3.47,4.35-9.33,4.96-14.1801,6.9
		c-9.5,3.76-16.79,11.42-22,20.02c6.09-2.2,11.47-5.91,17.27-8.71c1.87-1.04,5.31-1.13,5.81,1.51c0.06,3.5-3.25,5.55-5.36,7.87
		c-12.53,12.81-20.03,29.78-24.04,47.07c-5.5601,24.9-5.26,50.95-0.42,75.95c2.78,14.49,7.19,28.76,13.81,41.97
		c-5.76,1.66-10.85,5.23-14.68,9.8c-2.69-7.64-4.28-15.6-6.2-23.44c-0.24-0.2-0.71-0.61-0.95-0.81l0.98,0.6
		c-2.51-13.25-4.16-26.69-4.29-40.18c-0.33-9.47,0.21-18.97,1.13-28.39c1.11-11.46,3.18-22.81,5.88-34
		c-4.72,1.94-8.69,5.26-12.06,9.03c-1.91-4.47-0.13-9.4901-2.01-13.95c0.28-5.64,1.4-11.21,2.92-16.64
		c2.45-9.07,6.51-17.66,11.64-25.51c6.8-10.27,15.4-19.29,25.04-26.94c1.2-1,2.39-2.02,3.59-3.03c-2-0.45-4-0.88-5.96-1.4
		c-7.77-2-13.56-8.66-14.88-16.52c2.66,1.69,5.34,3.4,8.3,4.54c8.9,2.92,18.46,0.64,26.84-2.86c0.8-0.36,1.59-0.72,2.39-1.08
		c4.4301-12.16,12.7-22.89,23.46-30.11c6.99-4.74,14.84-8.11,22.94-10.45c11.26-3.47,23.07-4.06,34.74-4.99
		c0.05-0.55,0.16-1.65,0.21-2.2c0.54,0.68,1.06,1.37,1.58,2.08c7.59-0.84,15.17-1.7,22.7-2.95
		C677.03,482.54,688.51,479.91,699.46,475.71z"/>
	<path fill="#843318" stroke="#843318" stroke-width="0.3" d="M588.75,511.74c13.53-10.86,31.19-15.32,48.29-15.47
		c-6.36,3.6-14.39,8.12-14.15,16.55c22.14-8.48,45.31-14.71,69.05-16.19c43.98-3.47,88.07,7.8,127.42,27.04
		c6.32,3.31,12.91,6.17,18.82,10.21c-12.46-1.6-25.19-1.86-37.53,0.76c-1.16,0.35-1.92,1.36-2.84,2.06
		c3.36,2.79,7.36,4.63,11.49,5.98c16.99,5.54,34.6,8.73,51.97,12.76c-4.58,3.26-10.3,4.06-15.34,6.37
		c-4.14,1.87-9.29,3.31-11.26,7.85c14.01,1.28,27.94,4.21,40.91,9.75c5.36,2.33,11.01,4.29,15.69,7.9c-8.56,0.33-17,1.89-25.33,3.81
		c1.73,1.91,3.64,3.7,5.01,5.92c1.4,2.35,1.13,5.19,1.17,7.82c-3.32-2.79-6.67-5.75-10.85-7.17c-7.42-2.52-15.57-1.51-22.9,0.82
		c-17.96,7.65-37.02,12.78-56.46,14.75c-38.42,4.2-77.25-3.99-112.79-18.42c-8.54-3.3-16.5-7.9301-25.22-10.75
		c-14.77-5.41-31.54-7.38-46.53-1.6801c-12.28,5.08-21.89,15.07-28.73,26.25c-2.12,3.39-1.72,7.55-2.29,11.36
		c-0.3199,3.51-1.66,7.08-0.56,10.59c-0.85,5.4-1.93,10.9-0.74,16.34c2.7,17.12-0.67,35.7-11.49,49.55
		c-1.8,2.46-4.35,4.51-5.29,7.51c-4.32,13.48-5.84,28.14-2.44,42c2.81,11.92,9.1,22.77,17.04,32.01c-2.53,1.58-4.95-0.6-6.87-2.06
		c-4.71-4.01-9.28-8.34-12.39-13.75c-0.27,0.15-0.81,0.47-1.08,0.62c-0.75-1.92-1.47-3.85-2.1801-5.77
		c-1.73-4.65-3.09-9.42-4.43-14.18c-1.26,0.3-2.51,0.61-3.75,0.97c-6.62-13.21-11.03-27.48-13.81-41.97
		c-4.84-25-5.14-51.05,0.42-75.95c4.0099-17.29,11.5099-34.26,24.04-47.07c2.11-2.32,5.42-4.37,5.36-7.87
		c-0.5-2.64-3.94-2.55-5.81-1.51c-5.8,2.8-11.18,6.51-17.27,8.71c5.21-8.6,12.5-16.26,22-20.02c4.85-1.94,10.71-2.55,14.1801-6.9
		c4.6-5.2,5.14-12.5,8.8199-18.21C575,524.93,581.15,517.47,588.75,511.74 M659.04,521.97c-16.33,1.67-31.83,8-45.9,16.23
		c-2.92,1.8-6.05,3.37-8.48,5.85c1.6801-0.34,3.35-0.78,4.94-1.44c32.33-12.89,68.77-16.04,102.4901-6.81
		c5.81,1.37,11.29,3.87,17.1299,5.15c-3.59-3.35-8.21-5.3-12.46-7.64C699.2,524.03,678.86,519.4,659.04,521.97z"/>
	<path fill="#6A1D17" stroke="#6A1D17" stroke-width="0.3" d="M659.04,521.97c19.82-2.5699,40.16,2.0601,57.72,11.34
		c4.25,2.34,8.87,4.29,12.46,7.64c-5.84-1.28-11.3199-3.78-17.1299-5.15c-33.72-9.23-70.16-6.08-102.4901,6.81
		c-1.59,0.66-3.2599,1.1-4.94,1.44c2.4301-2.48,5.56-4.05,8.48-5.85C627.21,529.97,642.71,523.64,659.04,521.97z"/>
	<path fill="#FCC197" stroke="#FCC197" stroke-width="0.3" d="M594.74,595.78c7.49-3.85,15.85-6.03,24.28-6.23
		c12.59-0.35,24.92,3.56,36.01,9.29c4.47,2.19,8.48,5.31,13.2599,6.84c28.78,10.03,58.66,17.99,89.22,19.34
		c7.31,0.43,14.65,0.46,21.96,0.01c15.34-0.6,30.6-3.55,45.14-8.46c5.88-2.14,11.99-4.02,17.11-7.75
		c4.65-3.27,11.13-4.87,16.33-1.92c6.53,3.56,9.62,10.69,13.18,16.83c15.51,27.81,25.32,59.43,24.05,91.51
		c3.59,0.42,7.1899,1.12,10.49,2.67c3.65,1.75,6.98,4.15,9.77,7.1c4.64,4.99,7.68,11.46,8.4,18.25
		c1.25,10.23-3.08,21.09-11.56,27.11c-7.87,5.95-18.71,6.41-27.73,3.01c-2.12,7.22-4.67,14.29-7.2,21.37
		c-3.08,6.35-5.66,12.93-9.06,19.13c-4.24,8.17-9.11,16.01-14.49,23.48c-3.6,4.88-7.41,9.61-11.44,14.15
		c-5.06,5.47-10.37,10.73-16.04,15.59c-3.72,2.9901-7.49,5.9301-11.42,8.65c-4.71,3.45-9.9,6.15-14.72,9.44
		c-1.46,0.47-2.86,1.11-4.23,1.8c-5.67,3.09-11.74,5.29-17.65,7.85c0.11,3.11,0.1,6.22,0.16,9.33c-0.3-3.09-0.44-6.19-0.43-9.29
		c-21.58,7.41-44.57,10.3-67.32,8.86c-18.63-1.69-37.09-5.72-54.46-12.75c-4.87-1.91-9.63-4.07-14.31-6.39
		c-2.27-1.13-4.5-2.31-6.71-3.52c-6.51-3.34-12.39-7.72-18.71-11.35c-5.57-4.8-11.66-8.95-17.01-14.01
		c-4.89-3.93-8.72-9.06-13.71-12.81c-5.5-7.59-12.01-14.43-17.06-22.37c-3.77-5.45-7.17-11.15-10.36-16.95
		c-0.91-2.29-3.49-2.72-5.47-3.63c-10.39,5.94-24.49,4.66-33.08-3.85c-3.9-3.29-5.86-8.03-8.34-12.32
		c-2.02-9.5099-1.41-20.02,4.45-28.13c0.46-0.69,0.94-1.36,1.45-2.0099c3.83-4.57,8.92-8.14,14.68-9.8
		c1.24-0.36,2.49-0.67,3.75-0.97c1.34,4.76,2.7,9.53,4.43,14.18c-6.37,0.4-12.74,4.02-14.87,10.29c-3.39,7.72,0.48,17.78,8.48,20.75
		c6.2,2.66,13.29-0.18,17.41-5.14c-1.18-2.51-2.41-4.9901-3.57-7.4901l1.03,0.46c5.16,2.84,10.63,5.61,16.71,5.33
		c-0.89-1.11-1.78-2.17-2.67-3.24c-7.94-9.24-14.23-20.09-17.04-32.01c-3.4-13.86-1.88-28.52,2.44-42c0.94-3,3.49-5.05,5.29-7.51
		c10.82-13.85,14.19-32.43,11.49-49.55c-1.19-5.44-0.11-10.94,0.74-16.34c2.04-8.96,5.89-17.78,12.6-24.23
		C582.98,601.66,588.98,598.79,594.74,595.78 M801.16,672.34c-7.05,2.27-11.3799,9.09-13.65,15.77c-1.07,2.24,2.55,4.63,3.84,2.2
		c2.64-5.06,5.75-10.56,11.4301-12.64c5.7599-2.3,11.78,0.09,17.2599,2.01c2.57,0.01,2.47-3.26,0.59-4.21
		C814.8,672.27,807.69,670.46,801.16,672.34 M638.23,683.42c-3.67,1.28-7.14,3.19-10.13,5.67c-1.81,1.09-1.88,4.74,0.87,4.41
		c4.2-2.11,8.0601-5.39,12.9901-5.58c6.14-0.79,11.7599,2.99,15.35,7.67c1.1,1.12,1.92,2.87,3.62,3.17
		c2.03-0.08,2.74-2.83,1.52-4.25c-3.4-5.29-8.14-10.44-14.54-11.79C644.7,681.89,641.33,682.44,638.23,683.42 M809.15,708.29
		c-5.32,2.76-7.76,9.04-7.87,14.76c0.05,4.44,1.75,9.54,6.09,11.5c4.13,1.75,8.54-1.04,10.8-4.45c3.71-5.52,4.51-13.46,0.72-19.13
		C816.86,707.82,812.5,706.48,809.15,708.29 M642.35,717.54c-3.8199,1.94-5.59,6.44-5.48,10.55c-0.11,6.78,3.88,14.12,10.59,16.27
		c3.97,1.42,8.5099-0.9,10.24-4.62c3.16-6.41,1.03-14.56-3.91-19.48C650.92,717.31,646.25,715.6,642.35,717.54 M889.32,730.25
		c-0.54,9.28-1.33,18.56-3.02,27.71c6.37,5.3,16.97,3.78,21.34-3.34c5.57-8,1.34-20.34-7.63-23.76
		C896.64,729.34,892.85,729.52,889.32,730.25 M740.63,744.69c0.06,1.48,0.48,2.96,1.89,3.7c5.43,3.89,10.89,8.28,13.83,14.44
		c1.62,3.37,1.11,7.49-1.02,10.52c-3.04,4.42-7.91,7.08-12.66,9.31c-1.29,0.7401-3.69,1.35-2.91,3.38c3.84,0.95,7.5-1.11,11.01-2.37
		c5.9-2.55,12.15-5.37,16.15-10.61c2.38-2.98,2.37-7.29,0.45-10.49c-3.66-6.28-10.11-10.13-16.18-13.76
		C747.85,747.04,744.59,744.52,740.63,744.69 M821.26,745.41c-4.43,0.9-8.92,2.36-12.36,5.41c-1.9901,1.77-2.6801,4.68-1.87,7.2
		c1.4,2.56,3.98,4.24,6.65,5.27c9.88,3.46,21.08,3.2401,30.68-1.0099c2.45-1.32,5.29-2.7401,6.38-5.4901
		c1.33-2.79-0.18-6.38-2.79-7.81C840.03,744.07,830.17,744.15,821.26,745.41 M625.27,752.42c-4.88,0.71-9.7,2.22-13.85,4.94
		c-2.42,1.64-4.13,4.71-3.36,7.68c1.65,3.33,5.26,5.15,8.64,6.32c9.25,2.61,19.48,2.4,28.38-1.36c3.5-1.45,7.07-4.02,7.67-8.03
		c-0.64-3.87-4.32-6.42-7.73-7.79C638.71,752.03,631.86,751.52,625.27,752.42 M797.09,800.82c-37.67,13.38-79.03,13.67-117.82,5.2
		c-4.54-1.02-9.09-2-13.61-3.09c7.02,18.28,18.03,35.56,33.95,47.31c13.22,10.4,30.64,15.29,47.36,13.36
		c13.39-1.59,26.41-7.37,36.21-16.7c14.16-12.94,22.37-31.36,24.77-50.22C804.31,798.01,800.69,799.39,797.09,800.82z"/>
	<path fill="#590503" stroke="#590503" stroke-width="0.3" d="M499.97,622.51c1.88,4.46,0.1,9.48,2.01,13.95
		c-0.75,0.83-1.5,1.66-2.23,2.5099C499.51,633.48,499.4,627.98,499.97,622.51z"/>
	<path fill="#550504" stroke="#550504" stroke-width="0.3" d="M757.51,625.02c2.43-0.73,4.95-1.14,7.51-1.02
		c4.82,0.11,9.76-0.48,14.45,1.03C772.16,625.48,764.82,625.45,757.51,625.02z"/>
	<path fill="#6B1F18" stroke="#6B1F18" stroke-width="0.3" d="M801.16,672.34c6.53-1.88,13.64-0.07,19.47,3.1299
		c1.88,0.95,1.98,4.22-0.59,4.21c-5.48-1.92-11.5-4.31-17.2599-2.01c-5.6801,2.08-8.79,7.58-11.4301,12.64
		c-1.29,2.43-4.91,0.04-3.84-2.2C789.78,681.43,794.11,674.61,801.16,672.34z"/>
	<path fill="#6B1E18" stroke="#6B1E18" stroke-width="0.3" d="M638.23,683.42c3.1-0.98,6.47-1.53,9.68-0.7
		c6.4,1.35,11.14,6.5,14.54,11.79c1.22,1.42,0.51,4.17-1.52,4.25c-1.7-0.3-2.52-2.05-3.62-3.17c-3.59-4.6801-9.21-8.46-15.35-7.67
		c-4.93,0.19-8.79,3.47-12.9901,5.58c-2.75,0.33-2.68-3.32-0.87-4.41C631.09,686.61,634.56,684.7,638.23,683.42z"/>
	<path fill="#6A1F1C" stroke="#6A1F1C" stroke-width="0.3" d="M809.15,708.29c3.35-1.81,7.71-0.47,9.74,2.68
		c3.79,5.67,2.99,13.61-0.72,19.13c-2.26,3.41-6.67,6.2-10.8,4.45c-4.34-1.96-6.04-7.06-6.09-11.5
		C801.39,717.33,803.83,711.05,809.15,708.29z"/>
	<path fill="#6A1F1C" stroke="#6A1F1C" stroke-width="0.3" d="M642.35,717.54c3.9-1.94,8.57-0.23,11.44,2.72
		c4.94,4.92,7.07,13.07,3.91,19.48c-1.73,3.72-6.27,6.04-10.24,4.62c-6.71-2.15-10.7-9.49-10.59-16.27
		C636.76,723.98,638.53,719.48,642.35,717.54z"/>
	<path fill="#D39179" stroke="#D39179" stroke-width="0.3" d="M889.32,730.25c3.53-0.73,7.32-0.91,10.69,0.61
		c8.97,3.42,13.2,15.76,7.63,23.76c-4.37,7.12-14.97,8.64-21.34,3.34C887.99,748.81,888.78,739.53,889.32,730.25z"/>
	<path fill="#D39179" stroke="#D39179" stroke-width="0.3" d="M740.63,744.69c3.96-0.17,7.22,2.35,10.56,4.12
		c6.07,3.63,12.52,7.48,16.18,13.76c1.92,3.2,1.93,7.51-0.45,10.49c-4,5.24-10.25,8.06-16.15,10.61c-3.51,1.26-7.17,3.32-11.01,2.37
		c-0.78-2.03,1.62-2.64,2.91-3.38c4.75-2.23,9.62-4.89,12.66-9.31c2.13-3.03,2.64-7.15,1.02-10.52c-2.94-6.16-8.4-10.55-13.83-14.44
		C741.11,747.65,740.69,746.17,740.63,744.69z"/>
	<path fill="#FAA893" stroke="#FAA893" stroke-width="0.3" d="M821.26,745.41c8.91-1.2599,18.77-1.34,26.69,3.57
		c2.61,1.43,4.12,5.02,2.79,7.81c-1.09,2.75-3.93,4.17-6.38,5.4901c-9.6,4.25-20.8,4.47-30.68,1.0099
		c-2.67-1.03-5.25-2.71-6.65-5.27c-0.8101-2.52-0.1201-5.43,1.87-7.2C812.34,747.77,816.83,746.31,821.26,745.41z"/>
	<path fill="#FAA893" stroke="#FAA893" stroke-width="0.3" d="M625.27,752.42c6.59-0.9,13.44-0.39,19.75,1.76
		c3.41,1.37,7.09,3.92,7.73,7.79c-0.6,4.01-4.17,6.58-7.67,8.03c-8.9,3.76-19.13,3.97-28.38,1.36c-3.38-1.17-6.99-2.99-8.64-6.32
		c-0.77-2.97,0.94-6.04,3.36-7.68C615.57,754.64,620.39,753.13,625.27,752.42z"/>
	<path fill="#D39179" stroke="#D39179" stroke-width="0.3" d="M525.48,767.35c2.13-6.27,8.5-9.89,14.87-10.29
		c0.71,1.92,1.4301,3.85,2.1801,5.77c1.95,4.42,3.1899,9.29,6.3,13.1l-1.03-0.46c1.16,2.5,2.39,4.98,3.57,7.4901
		c-4.12,4.96-11.21,7.8-17.41,5.14C525.96,785.13,522.09,775.07,525.48,767.35z"/>
	<path fill="#6C1F18" stroke="#6C1F18" stroke-width="0.3" d="M542.53,762.83c0.27-0.15,0.81-0.47,1.08-0.62
		c3.11,5.41,7.68,9.74,12.39,13.75c1.92,1.46,4.34,3.64,6.87,2.06c0.89,1.07,1.78,2.13,2.67,3.24c-6.08,0.28-11.55-2.49-16.71-5.33
		C545.72,772.12,544.48,767.25,542.53,762.83z"/>
	<path fill="#720E0E" stroke="#720E0E" stroke-width="0.3" d="M797.09,800.82c3.6-1.43,7.22-2.81,10.86-4.14
		c-2.4,18.86-10.61,37.28-24.77,50.22c-14.92-5.94-31.37-6.51-47.21-5.7401c-12.4399,1.08-25.34,2.8-36.36,9.08
		c-15.92-11.75-26.93-29.03-33.95-47.31c4.52,1.09,9.07,2.07,13.61,3.09c2.16,12.28,13.55,20.07,24.73,23.51
		c23.89,7.1899,50.16,5.93,73.45-2.89C788.76,823.34,796.26,812.29,797.09,800.82z"/>
	<path fill="#F9FFFF" stroke="#F9FFFF" stroke-width="0.3" d="M679.27,806.02c38.79,8.47,80.15,8.18,117.82-5.2
		c-0.83,11.47-8.33,22.52-19.64,25.82c-23.29,8.82-49.56,10.08-73.45,2.89C692.82,826.09,681.43,818.3,679.27,806.02z"/>
	<path fill="#E46B70" stroke="#E46B70" stroke-width="0.3" d="M699.61,850.24c11.02-6.28,23.92-8,36.36-9.08
		c15.84-0.77,32.29-0.2,47.21,5.7401c-9.8,9.33-22.82,15.11-36.21,16.7C730.25,865.53,712.83,860.64,699.61,850.24z"/>
	<path fill="#8D9194" stroke="#8D9194" stroke-width="0.3" d="M616.04,899.02c8.07-5.79,16.87-10.52,26-14.42
		c4.68,2.32,9.44,4.48,14.31,6.39c0.02,2.96,0.13,5.92,0.15,8.89c-0.22,2.02,0.58,5.3-2.43,5.44c-10.51,3.01-20.5,7.91-29.08,14.73
		c-0.8,0.59-1.35,1.44-1.89,2.27c-3.29,2.04-5.8,5.03-8.16,8.05c-11.01,13.69-15.81,31.28-17.43,48.51
		c-3.11,40.43,6.96,80.3199,17.84,118.91c-7.89,2.0699-15.27,6.2799-20.85,12.26c-7.5-24.7101-14.42-49.6901-18.2-75.27
		c-1.35-9.2101-2.25-18.47-2.69-27.76c-0.51-10.95-0.15-21.92,0.89-32.83c0.81-9.09,2.49-18.11,5.39-26.77
		c3.42-10.4,8.83-20.02,15.36-28.77C601.32,911.26,608.27,904.62,616.04,899.02z"/>
	<path fill="#8D9194" stroke="#8D9194" stroke-width="0.3" d="M778.4,894.84c5.91-2.56,11.98-4.76,17.65-7.85
		c7.83,2.78,14.41,7.89,21.24,12.45c8.43,8.42,16.25,17.55,22,28.06c2.02,3.78,3.95,7.63,5.8,11.51
		c4.73,10.53,8.45,21.51,11.34,32.69c4.37,16.11,6.82,32.66,9.03,49.18c2.18,6.41,5.1,12.59,6.75,19.2
		c3.32,11.65,5.24,23.65,6.69,35.67c1.15,9.09,1.79,18.24,2.89,27.34c-1.58-0.4-3.16-0.7799-4.71-1.21
		c-1.05-0.3101-2.09-0.62-3.12-0.9301c-1.07-3.09-4.86-3.7999-7.21-5.6599c-1.86,2.0299-3.79,4.0699-4.94,6.61
		c-0.99,0.3199-1.97,0.66-2.94,1c-0.06-12.04-0.03-25.14-7.28-35.4c-4.78-7.3199-14.15-11.11-22.65-8.85
		c-6.47,1.12-12.59,4.41-16.92,9.37c-4.99,5.2999-10.03,10.5499-14.97,15.9c-0.26-0.2201-0.76-0.66-1.02-0.89
		c-0.3701-2.77-0.54-5.55-1.1201-8.28l-0.21-0.46c-4.07-0.0801-8.13,0.0299-12.18-0.13c-0.76-0.04-2.27-0.11-3.03-0.14
		c8.76-13.6901,19.3-26.17,30.66-37.76c3.5-3.62,7.62-6.59,10.93-10.41c3.27-2.62,6.55-5.24,10.04-7.58
		c7.39-3.8,11.49-12.11,10.91-20.27c-0.6801-11.42-4.38-22.4-7.77-33.24c-6.08-16.63-13.51-33.75-27.09-45.66
		c-0.38-0.24-1.14-0.72-1.52-0.96c-5.92-4.18-11.69-8.75-18.61-11.21c-2.68-1.26-5.58-1.92-8.46-2.49l-0.02-0.27
		C778.5,901.06,778.51,897.95,778.4,894.84 M844.39,1031.12c-1.88,1.88-3.69,3.8199-5.54,5.72c-0.59,0.98-2.03,3.1,0.09,3.39
		c3.33,0.9401,6.81,1.3301,10.22,1.99c0.88,0.28,1.78,0.54,2.7,0.77c0.76-4.5599-1.77-8.72-3.23-12.86
		C847.17,1030.28,845.74,1030.58,844.39,1031.12z"/>
	<path fill="#F8B57E" stroke="#F8B57E" stroke-width="0.3" d="M656.35,890.99c17.37,7.03,35.83,11.06,54.46,12.75
		c13.99,15.17,27.35,30.91,41.17,46.24c6.16,7.11,12.71,13.89,18.53,21.29c-11.31,16.38-22.86,32.61-34.29,48.92
		c-5.99,8.35-11.59,16.9999-17.87,25.14c-29.0699-41.92-58.7599-83.41-87.8-125.36c2.96-0.17,5.94-0.21,8.9-0.54
		c5.5,0.11,11.01,0.04,16.51-0.4c0.27-4.02,0.28-8.04,0.3-12.05c0.05-2.37,0.23-4.74,0.24-7.1
		C656.48,896.91,656.37,893.95,656.35,890.99z"/>
	<path fill="#F6986D" stroke="#F6986D" stroke-width="0.3" d="M710.81,903.74c22.75,1.44,45.74-1.45,67.32-8.86
		c-0.01,3.1,0.13,6.2,0.43,9.29l0.02,0.27c0.21,2.83,0.28,5.68,0.25,8.53c-0.02,2.03,0,4.07,0.03,6.13
		c2.66,0.09,5.32,0.1801,7.99,0.27c6.55,0.14,13.1,0.24,19.64,0.61c-11.81,17.22-24.05,34.14-35.98,51.29
		c-5.82-7.4-12.37-14.18-18.53-21.29C738.16,934.65,724.8,918.91,710.81,903.74z"/>
	<path fill="#E8E9EA" stroke="#E8E9EA" stroke-width="0.3" d="M778.58,904.44c2.88,0.57,5.78,1.23,8.46,2.49
		c6.14,3.83,12.19,7.85,18.61,11.21c0.38,0.24,1.14,0.72,1.52,0.96c-0.17,0.22-0.51,0.66-0.68,0.88
		c-6.54-0.37-13.09-0.47-19.64-0.61c-2.65-2.17-5.37-4.24-8.02-6.4C778.86,910.12,778.79,907.27,778.58,904.44z"/>
	<path fill="#E9E9EA" stroke="#E9E9EA" stroke-width="0.3" d="M639.45,919.43c5.5-4.28,11.19-8.32,16.81-12.45
		c-0.02,4.01-0.03,8.03-0.3,12.05C650.46,919.47,644.95,919.54,639.45,919.43z"/>
	<path fill="#E6E7E8" stroke="#E6E7E8" stroke-width="0.3" d="M577.01,925.69c6.6-0.78,12.18-4.64,18.24-7.04
		c-6.53,8.75-11.94,18.37-15.36,28.77c-3.4-3.93-7.41-7.91-12.86-8.46c-9.76-1.9-19.7401,6.16-20.14,16.04
		c-0.75,8.47,5.72,16.93,14.16,18.24c4.51,1.07,8.98-0.7,13.15-2.24c0.08,0.8,0.23,2.4,0.3,3.19c-1.04,10.91-1.4,21.88-0.89,32.83
		c-4.95-3.09-11.36-3.68-16.65-1.07c-7.57,3.31-11.86,12.45-9.45,20.3799c1.88,7.7301,9.62,13.1901,17.5,12.78
		c4.21,0.13,7.83-2.26,11.29-4.33c3.78,25.58,10.7,50.5599,18.2,75.27c-8.31,9.0599-12.36,21.83-10.51,34.0199
		c1.52,12.0601,9.02,22.6801,18.73,29.7101c5.33,5.96,13.5601,8.4,21.28,9.2899c17,1.9801,34.5-8.0499,41.5-23.6399
		c5.73-12.12,5.59-27.64-2.33-38.76c-4.36-7.63-10.26-14.62-18.1-18.8301c5.37-4.09,8.65-11.1,7.19-17.85
		c-1.49-9.1-11.28-15.6899-20.27-13.79c-8.26,1.41-14.77,9.49-14.25,17.8601c0.15,3.12,1.44,6.0099,2.5,8.9099
		c-1.65,0.1901-3.28,0.4601-4.89,0.8201c-10.88-38.5901-20.95-78.48-17.84-118.91c1.62-17.23,6.42-34.82,17.43-48.51
		c2.75,4.34,5.49,8.69,8.23,13.04c-3.85,4.15-6.43,9.86-5.16,15.6c0.92,7.14,6.92,13.09,13.99,14.2c3.39,0.86,6.82-0.1,10.09-1.03
		c19.1,28.64,38.19,57.32,58.91,84.82c3.63,4.7,7.32,9.37,11.24,13.84c-4.72-1.0499-9.92-1.5699-14.25,1.05
		c-9.43,4.35-12.4,17.97-5.78,25.92c5.15,7.2599,16.35,9.2699,23.56,3.98c7.54-5.12,9.84-15.89,5.1-23.66
		c5.7-4.78,10.11-10.8199,14.76-16.5601c8.5-10.7599,16.65-21.7899,24.74-32.85c2.66,3.9301,5.89,7.8401,10.55,9.4
		c8.24,3.1901,18.56-1.16,21.84-9.39c3.04-6.67,1.3-15.33-4.42-20.02c-2.65-2.46-6.2-3.42-9.5-4.66l-0.04-0.94
		c14.93-20.57,29.09-41.69,43.37-62.7c5.79,10.53,9.56,22.04,12.72,33.6c2.22,8.82,4.9,17.75,4.58,26.95
		c-0.1299,2.78-0.21,6.0099-2.71,7.79c-2.95,2.44-4.97,5.74-5.64,9.52c-3.49,2.34-6.77,4.96-10.04,7.58
		c-3.7,1.86-6.74,4.6901-9.76,7.47c-12.67,10.7101-23.42,23.4501-33.45,36.6001c-5.97-0.2001-12.12,2.49-15.36,7.63
		c-4.66,6.3899-3.84,15.96,1.64,21.61c-8.21,13.76-15.25,28.46-18.7,44.1799c-1.92,9.79-2.64,20.7101,2.54,29.6901
		c2.57,4.97,7.77,7.58,11.34,11.72c3.15,3.7,8.22,4.26,12.78,4.1899c4.09,0.29,8.59,0.7301,12.18-1.6799
		c3.21-1.84,5.21-5.86,3.97-9.47c-1.21-3.99-5.01-6.3-8.6-7.89c8.2401-0.92,14.79-8.67,14.57-16.9c0.29-9.16-7.88-17.89-17.2-17.41
		c-5.4901-0.3199-10.27,2.73-14.0601,6.38c3.1801-13.89,9.91-26.6,16.91-38.87l0.18,1.3301c8.83-1.6001,16.43-11.1901,13.4-20.14
		c0.83-0.4701,1.68-0.89,2.57-1.26c0.2599,0.23,0.7599,0.6699,1.02,0.89c4.94-5.3501,9.98-10.6001,14.97-15.9
		c4.33-4.96,10.45-8.25,16.92-9.37c7.37,0.73,14.61,4.1899,18.69,10.5699c-5.38,1.3301-11.12,3.24-14.23,8.1801
		c-5.4301,7.47-3.5,18.9399,4.19,24.11c4.56,3.62,10.61,3.47,16.08,2.77c1.15-0.0701,2.28-0.13,3.44-0.14
		c1.95,11.2,1.42,22.6899,0.5,33.97c-6.31-3.38-14.7-3.6899-20.42,1.05c-6.59,4.77-9,14.4399-4.98,21.61
		c3.35,6.95,11.29,10.52,18.79,9.41c-3.09,8.09-6.94,16.84-14.78,21.37c-4.3199-5.38-11.8199-6.26-18.11-4.4801
		c-4.35,0.26-9.42,1.13-11.7,5.3501c-2.59,4.2799,0.16,9.6899,4.08,12.0599c3.73,2.72,8.56,2.92,12.91,1.85
		c3.77-0.34,7.73-0.4099,11.09-2.39c0.9,0.04,2.7,0.1201,3.6,0.15c-7.26,4.37-9.81,14.4301-6.1201,21.9401
		c4.29,9.96,18.9301,13.34,26.9,5.7999c6.8-5.34,8.26-15.98,3.32-23.0199c-2.99-4.6901-8.2-6.9601-13.4-8.2401
		c5.83-4.49,10.69-10.24,13.92-16.87c4.45-8.08,6.34-17.1599,9.04-25.8899c0.63-2.64,0.76-5.3501,1.17-8.01
		c-0.17,6.37-0.04,12.75-0.09,19.13c-0.21,2.2799,0.87,4.35,1.86,6.34c-1.01,1.37-1.78,2.9399-1.66,4.71
		c-0.1801,18.34,0.05,36.6801-0.09,55.01c0.34,9.9-0.81,19.9,0.8,29.71l-0.9-0.61c0.02,26.98,0,53.9501,0.0099,80.92
		c0.05,4.4399-0.45,9.02,1,13.3199c-0.77,1.8501-1.04,3.8401-0.99,5.8501c-5.03,0.24-10.05,0.1699-15.07,0.11
		c4.39-3.8401,7.81-9.28,7.3-15.3401c-0.11-10.1599-10.55-18.5199-20.5-16.4299c-9.31,1.4199-16.16,11.41-13.91,20.61
		c0.71,4.4399,3.78,7.88,6.66,11.13c-16.83,0.13-33.65,0.13-50.48-0.03c3.03-2.85,5.92-6.15,6.89-10.2999
		c1.95-7.3601-1.63-15.77-8.35-19.3601c-6.33-3.7999-15.23-2.85-20.42,2.4501c-5.54,5.13-7.1,13.9199-3.67,20.65
		c1.24,2.73,3.64,4.64,5.88,6.5499c-17.11,0.2001-34.22,0.12-51.33,0.04c3.77-3.12,6.97-7.3,7.39-12.34
		c1.05-7.41-3.27-15.0901-10.15-18.03c-7.28-3.71-16.85-0.92-21.3199,5.83c-5.71,7.5801-3.33,19.23,4.42,24.51
		c-17.13,0.17-34.26,0.17-51.38,0.02c3.03-2.46,5.96-5.38,6.94-9.28c3.19-9.4-3.39-20.96-13.34-22.4299
		c-9.57-2.0801-20.07,5.6499-20.6,15.49c-0.69,6.27,2.43,12.48,7.41,16.22c-16.86,0.12-33.73,0.16-50.59,0
		c2.72-3,5.52-6.17,6.53-10.1899c2.01-6.8101-1.03-14.4501-6.72-18.53c-2.91-2.36-6.7-2.9301-10.26-3.6
		c-0.19-10.15-0.16-20.29-0.12-30.4301c8.41,0.1899,16.47-6.4399,17.44-14.88c1.64-10.08-7.08-20.47-17.44-19.9399
		c-0.1-10.16-0.12-20.3101-0.05-30.4601c5.29-0.71,10.86-2.52,14.11-7.0499c5-6.49,4.69-16.3501-0.91-22.38
		c-3.09-3.6901-7.8799-5.17-12.46-5.89c-0.12-10.1801-0.27-20.37,0.05-30.54c8.39-0.1799,15.86-7.09,16.78-15.41
		c1.3199-9.88-7.38-19.95-17.51-19.34c0.01-10.16-0.15-20.3199,0.11-30.47c6.43-0.76,12.97-3.97,15.76-10.12
		c4.56-8.64,0.02-20.34-9.06-23.8101c-6.33-2.8199-13.56-0.8199-18.83,3.25c-14.62-3.1599-29.26-6.22-43.91-9.25
		c-1.84-0.39-3.68-0.7899-5.51-1.1599c-0.05-0.77-0.14-2.3101-0.19-3.0801c0.95-0.71,1.9-1.4199,2.84-2.15l-0.8,0.3
		c0.71-1.39,1.04-2.92,1.15-4.45c0.62-9.26,2.31-18.41,2.94-27.67c0.13-4.36,2.78-8.43,1.82-12.82c1.85-1.3,1.87-3.69,2.4-5.66
		c1.73-8.38,4.39-16.51,6.87-24.68c4.9-13.02,11.09-25.69,20.03-36.45c-0.96-0.66-1.9-1.31-2.84-1.95c3.87-1.9,8.11-3.25,11.37-6.19
		C556.41,932.3,566.46,927.62,577.01,925.69 M632.37,1004.46c-10.54,1.55-17.74,13.68-13.44,23.58
		c3.26,9.45,15.55,13.97,24.25,9.1599c7.63-3.7699,11.6-13.6799,8.21-21.5699C648.65,1008.05,640.33,1003.09,632.37,1004.46
		 M700.32,1136.4301c-6.9,2.33-11.97,9.25-11.67,16.6c-0.41,8.9399,7.45,17.03,16.33,17.25c8.89,0.73,17.75-6.37,18.3-15.39
		c0.87-6.21-2.11-12.46-7.09-16.11C711.75,1135.29,705.59,1134.9301,700.32,1136.4301 M631.36,1201.4399
		c-7.43,1.6901-13.68,8.8501-13.57,16.6101c-0.55,8.95,7.25,17.47,16.18,17.85c5.32,0.53,10.54-2,14.19-5.74
		c4.89-5.51,5.79-13.98,2.06-20.36C646.61,1203.35,638.57,1199.8,631.36,1201.4399 M702.4,1201.45
		c-8.04,1.5601-14.17,9.42-13.78,17.5901c0.09,9.3999,8.94,17.7899,18.43,16.84c9.13-0.23,16.85-8.75,16.25-17.85
		C723.47,1207.58,712.58,1198.85,702.4,1201.45 M773.37,1201.4399c-6.33,1.3301-11.89,6.2001-13.28,12.64
		c-3.26,10.17,5.34,21.67,15.94,21.8301c9.6899,0.8099,18.87-8.2101,18.15-17.92C794.33,1207.6899,783.44,1198.86,773.37,1201.4399
		 M630.28,1267.36c-8.67,2.22-14.21,11.87-12.14,20.51c1.07,5.87,5.7,10.64,11.17,12.73c5.26,1.61,11.38,1.03,15.85-2.36
		c6.05-4.11,8.91-12.28,6.64-19.25C649.26,1270.16,639.09,1264.5601,630.28,1267.36 M701.22,1267.37
		c-8.02,2.11-13.54,10.38-12.5099,18.61c0.6,8.98,9.37,16.23,18.29,15.41c9.32-0.11,17.26-9.0601,16.33-18.33
		C723.36,1272.27,711.33,1264.11,701.22,1267.37 M772.2,1267.36c-6.7,1.6-11.83,7.77-12.6,14.5601c-1.56,9.89,7.21,20.1,17.34,19.48
		c10.03,0.5599,18.69-9.48,17.14-19.3C793.44,1271.79,782,1264.1899,772.2,1267.36 M842.38,1267.48
		c-8.98,2.6801-14.45,13.52-11.1,22.3c1.21,4.26,4.66,7.4399,8.3799,9.63c7.35,4.27,17.82,1.84,22.36-5.42
		c5.39-7.37,3.51-18.76-3.99-23.96C853.66,1266.59,847.62,1266.05,842.38,1267.48z"/>
	<path fill="#BDBFC1" stroke="#BDBFC1" stroke-width="0.3" d="M807.17,919.1c13.58,11.91,21.01,29.03,27.09,45.66
		c3.39,10.84,7.09,21.82,7.77,33.24c0.58,8.16-3.52,16.47-10.91,20.27c0.67-3.78,2.69-7.08,5.64-9.52c2.5-1.78,2.58-5.01,2.71-7.79
		c0.32-9.2-2.36-18.13-4.58-26.95c-3.16-11.56-6.93-23.07-12.72-33.6c-14.28,21.01-28.44,42.13-43.37,62.7
		c-6.01,8.63-12.2,17.14-18.43,25.61c-8.09,11.0601-16.24,22.0901-24.74,32.85c-4.65,5.7401-9.06,11.78-14.76,16.5601
		c-3.29-1.9-6.16-4.4301-8.63-7.29c-3.92-4.47-7.61-9.14-11.24-13.84c-20.72-27.5-39.81-56.18-58.91-84.82
		c-6.41-9.52-12.44-19.29-18.92-28.77c-2.74-4.35-5.48-8.7-8.23-13.04c2.36-3.02,4.87-6.01,8.16-8.05c2.46-0.86,4.91-1.75,7.45-2.35
		c29.04,41.95,58.73,83.44,87.8,125.36c6.28-8.14,11.88-16.7899,17.87-25.14c11.4301-16.31,22.98-32.54,34.29-48.92
		c11.93-17.15,24.17-34.07,35.98-51.29C806.66,919.76,807,919.32,807.17,919.1z"/>
	<path fill="#E6E7E8" stroke="#E6E7E8" stroke-width="0.3" d="M839.66,924.06c17.55-0.53,36.29,3.64,49.64,15.68
		c4.27,4.38,8.98,8.42,12.39,13.55c-1.78,7.66,2.94,16.78,10.79,18.76c2.2,5.05,4.18,10.19,6,15.4c0.73,0.45,1.47,0.9,2.23,1.38
		c-1.17,5.42,1.77,10.48,2.63,15.73c-3.41-0.21-6.95-0.63-10.23,0.61c-7.39,2.35-12.72,10.15-11.87,17.92
		c0.62,8.0999,7.44,15.53,15.72,15.97c4.38,0.59,8.54-1.2001,12.31-3.2101c0.97,7.72,2.04,15.42,2.67,23.1801
		c2.31,1.03,3.39,3.22,2.03,5.52c-1.5,0.12-3.0099,0.2799-4.48,0.5299c-16.87,3.53-33.76,6.9701-50.59,10.67
		c-1.45-12.02-3.37-24.02-6.69-35.67c-1.65-6.61-4.57-12.7899-6.75-19.2c-2.21-16.52-4.66-33.07-9.03-49.18
		c2.63-2.43,5.54-4.77,7.07-8.09c3.96-8.12,0.35-19.42-8.1-23.09c-3.13-1.84-6.83-1.72-10.31-1.51c-1.85-3.88-3.78-7.73-5.8-11.51
		C839.4,926.34,839.53,925.2,839.66,924.06z"/>
	<path fill="#D2D3D5" stroke="#D2D3D5" stroke-width="0.3" d="M546.89,955c0.4-9.88,10.38-17.94,20.14-16.04
		c5.45,0.55,9.46,4.53,12.86,8.46c-2.9,8.66-4.58,17.68-5.39,26.77c-0.07-0.79-0.22-2.39-0.3-3.19c-4.17,1.54-8.64,3.31-13.15,2.24
		C552.61,971.93,546.14,963.47,546.89,955z"/>
	<path fill="#D2D3D5" stroke="#D2D3D5" stroke-width="0.3" d="M845.09,939.01c3.48-0.21,7.18-0.33,10.31,1.51
		c8.45,3.67,12.06,14.97,8.1,23.09c-1.53,3.32-4.44,5.66-7.07,8.09C853.54,960.52,849.82,949.54,845.09,939.01z"/>
	<path fill="#D2D3D5" stroke="#D2D3D5" stroke-width="0.3" d="M618.01,959.01c-1.27-5.74,1.31-11.45,5.16-15.6
		c6.48,9.48,12.51,19.25,18.92,28.77c-3.27,0.93-6.7,1.89-10.09,1.03C624.93,972.1,618.93,966.15,618.01,959.01z"/>
	<path fill="#D0D1D4" stroke="#D0D1D4" stroke-width="0.3" d="M912.48,972.05c-7.85-1.98-12.57-11.1-10.79-18.76
		c1.29,1.81,2.61,3.62,3.92,5.44C908.06,963.07,910.51,967.45,912.48,972.05z"/>
	<path fill="#D2D3D5" stroke="#D2D3D5" stroke-width="0.3" d="M760.37,1028.72c6.23-8.47,12.42-16.98,18.43-25.61l0.04,0.94
		c3.3,1.24,6.85,2.2,9.5,4.66c5.72,4.69,7.46,13.35,4.42,20.02c-3.28,8.23-13.6,12.5801-21.84,9.39
		C766.26,1036.5601,763.03,1032.65,760.37,1028.72z"/>
	<path fill="#D2D3D5" stroke="#D2D3D5" stroke-width="0.3" d="M556.96,1005.95c5.29-2.61,11.7-2.02,16.65,1.07
		c0.44,9.29,1.34,18.5499,2.69,27.76c-3.46,2.0699-7.08,4.46-11.29,4.33c-7.88,0.41-15.62-5.0499-17.5-12.78
		C545.1,1018.4,549.39,1009.26,556.96,1005.95z"/>
	<path fill="#D2D3D5" stroke="#D2D3D5" stroke-width="0.3" d="M632.37,1004.46c7.96-1.37,16.28,3.59,19.02,11.17
		c3.39,7.89-0.58,17.8-8.21,21.5699c-8.7,4.8101-20.99,0.29-24.25-9.1599C614.63,1018.14,621.83,1006.01,632.37,1004.46z"/>
	<path fill="#D2D3D5" stroke="#D2D3D5" stroke-width="0.3" d="M913.11,1005.17c3.28-1.24,6.82-0.82,10.23-0.61
		c2.24,8.59,3.61,17.36,5.16,26.09c0.29,1.73,0.53,3.45,0.77,5.2c-3.77,2.01-7.93,3.8-12.31,3.2101
		c-8.28-0.4401-15.1-7.8701-15.72-15.97C900.39,1015.32,905.72,1007.52,913.11,1005.17z"/>
	<path fill="#BDBFC1" stroke="#BDBFC1" stroke-width="0.3" d="M811.32,1033.3199c3.02-2.7799,6.06-5.61,9.76-7.47
		c-3.31,3.8201-7.43,6.79-10.93,10.41c-11.36,11.59-21.9,24.0699-30.66,37.76c-1.3-0.0801-2.6-0.15-3.89-0.21
		c0.72-1.3201,1.45-2.64,2.27-3.89C787.9,1056.77,798.65,1044.03,811.32,1033.3199z"/>
	<path fill="#BDBFC1" stroke="#BDBFC1" stroke-width="0.3" d="M844.39,1031.12c1.35-0.54,2.78-0.84,4.24-0.99
		c1.46,4.14,3.99,8.3,3.23,12.86c-0.92-0.23-1.82-0.49-2.7-0.77c-0.43-1.0399-0.8199-2.08-1.17-3.12
		C847.12,1036.3,846.37,1033.36,844.39,1031.12z"/>
	<path fill="#D2D3D5" stroke="#D2D3D5" stroke-width="0.3" d="M838.85,1036.84c1.85-1.9,3.66-3.84,5.54-5.72
		c1.98,2.24,2.73,5.1801,3.6,7.98C844.8,1039.03,841.7,1038.25,838.85,1036.84z"/>
	<path fill="#E4E5E7" stroke="#E4E5E7" stroke-width="0.3" d="M838.94,1040.23c-2.12-0.29-0.68-2.41-0.09-3.39
		c2.85,1.41,5.95,2.1901,9.14,2.26c0.35,1.04,0.74,2.0801,1.17,3.12C845.75,1041.5601,842.27,1041.17,838.94,1040.23z"/>
	<path fill="#BDBFC1" stroke="#BDBFC1" stroke-width="0.3" d="M828.94,1058.65c8.5-2.26,17.87,1.53,22.65,8.85
		c7.25,10.26,7.22,23.36,7.28,35.4c0.97-0.34,1.95-0.6801,2.94-1c2.53,10.7999,2.24,22.01,1.64,33.02
		c-1.08,12.88-2.89,25.89-7.64,38.01c-3.35,8.45-8.93,17.9099-18.72,19.5299c-0.22-0.23-0.65-0.6799-0.8701-0.9099
		c7.84-4.53,11.69-13.28,14.78-21.37c3.67-10.3301,5.49-21.2001,6.61-32.0701c0.92-11.28,1.45-22.77-0.5-33.97
		c-1.16,0.01-2.29,0.0699-3.44,0.14c0.85-11.9,0.43-24.61-6.04-35.0601C843.55,1062.84,836.31,1059.38,828.94,1058.65z"/>
	<path fill="#F8B57E" stroke="#F8B57E" stroke-width="0.3" d="M508.15,1065.21c14.65,3.03,29.29,6.0901,43.91,9.25
		c3.96,0.86,7.93,1.6901,11.89,2.5901c0.08,4.61,0.05,9.23,0.07,13.86c-0.21,3.9199-0.99,7.7899-1.45,11.6899
		c-3.84,28.25-7.78,56.5-11.33,84.79c-3.43,23.52-6.37,47.11-9.63,70.65c-0.81,6.85-2.08,13.6499-2.52,20.5399
		c-3.69,23.04-6.26,46.24-9.64,69.3301c-0.43,3.38-1.4,7.0299,0.4,10.22c5.7,12.47,10.85,25.21,16.83,37.5599
		c0.93,3.6201,1.86,7.64,0.24,11.2201c-1,2.45-3.24,4.0299-5.48,5.25c-6.06,1.62-12.87-1.04-16.19-6.35
		c-3.18-5.14-5.36-10.8401-8.76-15.8501c0.42,5.16,0.77,10.3301,1.06,15.51c0.38,11.8401,1.4,23.65,1.73,35.49
		c0.14,5.4501-2.17,11.5-7.28,14.0601c-4.08,2.22-9.46,0.91-12.35-2.64c-3.69-4.22-4.53-10-4.77-15.39
		c-3.47-0.23-7.25-0.41-10-2.8099c-5.15-4.26-6.19-11.25-7.5-17.4c-2.87-1.5601-5.07-4.27-5.15-7.63
		c-0.91-12.03-0.9-24.11-1.48-36.16c-0.46-8.35-0.42-16.71-1.03-25.05c0.06-5.3099-0.28-10.59-0.56-15.8799
		c-0.36-5.29,1.29-10.5,3.9-15.04c1.91-3.03,1.99-6.67,2.46-10.1c3.78-28.77,7.84-57.51,11.55-86.29
		c2.91-20.67,5.62-41.37,8.42-62.05c3.08-22.47,6.08-44.9399,9.14-67.4099C505.75,1082.51,506.89,1073.85,508.15,1065.21z"/>
	<path fill="#F8B57E" stroke="#F8B57E" stroke-width="0.3" d="M878.9,1075.75c16.83-3.7,33.72-7.14,50.59-10.67
		c1.91,17.2301,4.52,34.39,6.77,51.5801c2.33,16.83,4.38,33.71,6.94,50.51c4.06,32.2799,8.59,64.51,12.96,96.76
		c2.08,16.0699,4.35,32.11,6.44,48.1699c0.5,3.98,3.4901,7.05,4.46,10.91c2.12,5.79,0.92,11.98,0.77,17.97
		c-0.15,5.24-0.39,10.48-0.51,15.73c-0.68,15.4501-1.2,30.89-1.76,46.3401c-0.26,4.87,0.03,11.38-5.41,13.5499
		c-1.46,6.02-2.31,12.88-7.22,17.24c-2.89,2.7001-7,2.9-10.71,3.36c0.11,0.7301,0.22,1.49,0.35,2.27
		c-0.73,4.6-1.64,9.5601-4.98,13.0801c-2.78,3.1799-7.65,4.6899-11.56,2.76c-5.83-2.52-8.34-9.38-7.8701-15.3601
		c0.7-16.71,1.84-33.3899,2.55-50.09c-2.71,4.9-5.18,9.9401-7.88,14.86c-3.08,5.8301-10.47,9.52-16.88,7.25
		c-3.78-1.28-6.21-5.1599-6.3-9.0499c-0.35-4.24,1.66-8.11,3.3199-11.86c5.33-12,10.58-24.04,15.92-36.04
		c-0.25-0.91-0.48-1.79-0.7-2.66c-0.61-10.16-2.62-20.17-3.76-30.27c-5.44-40.1899-10.77-80.39-16.27-120.58
		c-3.02-22.02-5.68-44.1-9.06-66.0701c-0.86-9.1299-2.46-18.1699-3.55-27.2699c0.51-2.1001,1.04-4.2001,1.53-6.29
		c1.55,0.4301,3.13,0.8099,4.71,1.21C880.69,1093.99,880.05,1084.84,878.9,1075.75z"/>
	<path fill="#D2D3D5" stroke="#D2D3D5" stroke-width="0.3" d="M847.63,1069.22c6.47,10.4501,6.89,23.16,6.04,35.0601
		c-5.47,0.7-11.52,0.85-16.08-2.77c-7.69-5.17-9.6201-16.64-4.19-24.11C836.51,1072.46,842.25,1070.55,847.63,1069.22z"/>
	<path fill="#D2D3D5" stroke="#D2D3D5" stroke-width="0.3" d="M552.06,1074.46c5.27-4.0699,12.5-6.0699,18.83-3.25
		c9.08,3.4701,13.62,15.17,9.06,23.8101c-2.79,6.15-9.33,9.36-15.76,10.12c-0.18-1-0.53-2.99-0.7-3.99
		c1.16-3.29,0.55-6.84,0.53-10.24c-0.02-4.63,0.01-9.25-0.07-13.86C559.99,1076.15,556.02,1075.3199,552.06,1074.46z"/>
	<path fill="#D2D3D5" stroke="#D2D3D5" stroke-width="0.3" d="M617.74,1088.0601c-0.52-8.3701,5.99-16.4501,14.25-17.8601
		c8.99-1.8999,18.78,4.6901,20.27,13.79c1.46,6.75-1.82,13.76-7.19,17.85c-7.5-4.22-16.31-5.8199-24.83-4.87
		C619.18,1094.0699,617.89,1091.1801,617.74,1088.0601z"/>
	<path fill="#D2D3D5" stroke="#D2D3D5" stroke-width="0.3" d="M697.99,1071.89c4.33-2.62,9.53-2.1,14.25-1.05
		c2.47,2.86,5.34,5.39,8.63,7.29c4.74,7.77,2.44,18.54-5.1,23.66c-7.21,5.2899-18.41,3.2799-23.56-3.98
		C685.59,1089.86,688.56,1076.24,697.99,1071.89z"/>
	<path fill="#D2D3D5" stroke="#D2D3D5" stroke-width="0.3" d="M762.51,1077.55c3.24-5.14,9.39-7.8301,15.36-7.63
		c-0.82,1.25-1.55,2.5699-2.27,3.89c1.29,0.0599,2.59,0.1299,3.89,0.21c0.76,0.03,2.27,0.1,3.03,0.14
		c-6.73,7.86-13.11,16.0599-18.37,25C758.67,1093.51,757.85,1083.9399,762.51,1077.55z"/>
	<path fill="#BDBFC1" stroke="#BDBFC1" stroke-width="0.3" d="M782.52,1074.16c4.05,0.1599,8.11,0.0499,12.18,0.13l0.21,0.46
		c-3.4,0.2-7.94-1.47-10.2599,1.87c-10.28,12.39-18.37,26.48-24.92,41.16c-4.35,10-7.84,20.48-9.24,31.33
		c-0.97,8.72-0.44,18.26,4.76,25.67c2.17,2.86,4.67,5.88,8.24,6.98c1.84,3.4299,5.12,5.65,8.62,7.1799
		c-4.56,0.0701-9.63-0.49-12.78-4.1899c-3.57-4.14-8.77-6.75-11.34-11.72c-5.18-8.98-4.46-19.9-2.54-29.6901
		c3.45-15.72,10.49-30.4199,18.7-44.1799C769.41,1090.22,775.79,1082.02,782.52,1074.16z"/>
	<path fill="#FEFEFE" stroke="#FEFEFE" stroke-width="0.3" d="M784.65,1076.62c2.3199-3.34,6.86-1.67,10.2599-1.87
		c0.58,2.73,0.75,5.51,1.1201,8.28c-0.89,0.37-1.7401,0.7899-2.57,1.26c-5.09,5.84-9.46,12.26-13.58,18.8099
		c-7,12.27-13.73,24.98-16.91,38.87c-1.55,6.1801-2.5099,12.76-1.11,19.0701c0.78,3.61,3.95,5.83,6.86,7.71
		c-0.74,0-2.22-0.02-2.97-0.03c0.39,0.5901,1.15,1.76,1.53,2.3401c-3.33,2.4399-5.48,6.58-3.79,10.7c-3.57-1.1-6.07-4.12-8.24-6.98
		c-5.2-7.41-5.73-16.9501-4.76-25.67c1.4-10.85,4.89-21.33,9.24-31.33C766.28,1103.1,774.37,1089.01,784.65,1076.62z"/>
	<path fill="#D2D3D5" stroke="#D2D3D5" stroke-width="0.3" d="M793.46,1084.29c3.03,8.95-4.57,18.5399-13.4,20.14l-0.18-1.3301
		C784,1096.55,788.37,1090.13,793.46,1084.29z"/>
	<path fill="#FEFEFE" stroke="#FEFEFE" stroke-width="0.3" d="M861.81,1101.9c1.15-2.54,3.08-4.5801,4.94-6.61
		c2.35,1.86,6.14,2.5699,7.21,5.6599c0.44,2.42,1,4.8201,1.59,7.2201c1.09,9.1,2.69,18.14,3.55,27.2699
		c-1.34-2.1799-2.72-4.33-4.16-6.4199c-0.23,6.96-0.98,13.89-2.02,20.78c-0.41,2.6599-0.54,5.37-1.17,8.01
		c-2.7,8.73-4.59,17.8099-9.04,25.8899c-3.23,6.63-8.09,12.38-13.92,16.87c-3.38,1.6901-7,2.8401-10.7,3.52
		c-0.9-0.0299-2.7-0.11-3.6-0.15c3.45-2.7799,4.64-7.48,2.6-11.48c9.79-1.62,15.37-11.08,18.72-19.5299
		c4.75-12.12,6.56-25.13,7.64-38.01C864.05,1123.91,864.34,1112.7,861.81,1101.9z"/>
	<path fill="#619C9A" stroke="#619C9A" stroke-width="0.3" d="M615.35,1097.79c1.61-0.36,3.2401-0.63,4.89-0.8201
		c8.52-0.95,17.33,0.65,24.83,4.87c7.84,4.2101,13.74,11.2001,18.1,18.8301c3.42,9.7999,4.71,20.6799,1.21,30.6499
		c-5.17,16.29-21.31,28.1801-38.39,28.39c-8.2,0.42-15.95-2.62-23.27-5.9299c-9.71-7.03-17.21-17.65-18.73-29.7101
		c-1.85-12.1899,2.2-24.96,10.51-34.0199C600.08,1104.0699,607.46,1099.86,615.35,1097.79 M618.42,1112.52
		c-12.7,3.0599-21.74,16.4299-19.59,29.37c1.62,14.4399,16.75,25.42,31,22.35c14.1-2.23,24.37-17.26,21.18-31.21
		C648.55,1118.54,632.57,1108.45,618.42,1112.52z"/>
	<path fill="#CEC2B9" stroke="#CEC2B9" stroke-width="0.3" d="M873.96,1100.95c1.03,0.3101,2.07,0.62,3.12,0.9301
		c-0.49,2.09-1.02,4.1899-1.53,6.29C874.96,1105.77,874.4,1103.37,873.96,1100.95z"/>
	<path fill="#FEFEFE" stroke="#FEFEFE" stroke-width="0.3" d="M618.42,1112.52c14.15-4.0701,30.13,6.02,32.59,20.51
		c3.19,13.95-7.08,28.98-21.18,31.21c-14.25,3.0701-29.38-7.91-31-22.35C596.68,1128.95,605.72,1115.58,618.42,1112.52
		 M622.4,1122.58c-7.73,1.12-13.71,8.66-13.19,16.4301c0.29,8.52,8.34,15.77,16.86,14.99c9.25-0.34,16.67-10,14.48-19.01
		C639.04,1126.88,630.52,1120.97,622.4,1122.58z"/>
	<path fill="#E6E7E8" stroke="#E6E7E8" stroke-width="0.3" d="M364.18,1121.49c0.42-0.3199,1.26-0.9399,1.68-1.25l-0.22,0.87
		c1.71,1.49,4.26,0.59,6.33,0.83c9.19-0.45,18.47,0.7301,27.59-0.6699c3.1,0.0599,5.96,1.35,8.7,2.6799l-1.53,0.15
		c4.35,2.16,9.19,3.23,13.33,5.86c-48.4,18.8301-98.28,33.7101-148.6,46.4501c-3.73,1.1799-8.02,1.1599-11.15,3.75
		c8.45-1.2101,16.62-3.87,24.9-5.86c42.96-11.28,85.46-24.37,127.1-39.8401c3.22-1.14,6.32-2.72,9.7-3.33
		c1.71,0.28,3.35,0.91,4.99,1.49c8.51,4.7,16.04,10.92,22.77,17.89c2.99,2.25,5.31,5.22,6.98,8.5599
		c-38.34,15.5-78.05,27.38-117.78,38.7401c-1.83,0.6-3.54,1.49-5.26,2.35c-1.54,0.49-3.09,0.95-4.64,1.4
		c-14.4,3.7599-28.83,7.4299-43.31,10.8999c-10.52,2.55-21.07,5.01-31.67,7.2001c-0.91-5.8401,0.66-11.63,0.3-17.4401
		c1.66-1.1899,1.22-3.4199,1.58-5.15c1.23-16.1,8.1-31.48,18.17-43.99c12.91-15.83,31.73-25.7899,51.22-31.0499
		c5.06,1.5599,10.44,0.47,15.64,0.7999c8.06-0.26,16.17,0.51,24.2-0.46c-12.78-0.97-25.62,0.16-38.41-0.64
		C339.22,1121.09,351.72,1121.58,364.18,1121.49z"/>
	<path fill="#3C2515" stroke="#3C2515" stroke-width="0.3" d="M1042.41,1120.4399c2.39,1.0801,5.0699,0.8,7.65,0.8401
		c16.98-0.0801,33.97,0.02,50.95-0.0601c5.29-0.1799,10.2,2.1,15.13,3.6801c10.9,3.89,21.26,9.4,30.27,16.6899
		c14.13,11.5801,23.95,28.0701,28,45.8401c2.09,12.9099,3.0699,25.99,3.1799,39.0699c0.0801,14.42-0.6799,28.9-2.99,43.14
		c-0.4,0.02-1.1899,0.04-1.59,0.0599c-4.38-5.23-7.02-11.6-9.98-17.6599c-10.1801-22.16-19.0701-44.88-28.0701-67.53
		c-16.51,10.16-34.0699,19.77-53.5,22.65c-11,1.3199-22.3199,1.12-33.09-1.6c-16.29-4.0901-31.13-12.3101-45.33-21.04
		c-8.69,21.96-17.35,43.9399-27.1,65.46c-3.4,7.04-6.38,14.4501-11.54,20.4301c-2.42-3.36-1.73-7.86-2.35-11.75
		c1.75-3.3401,0.68-7.1801,0.46-10.7201c-0.43,1.0801-0.83,2.1901-1.21,3.3301c-0.16-1.9501-0.28-3.9-0.3-5.8201
		c1.89-5.6399,0.5-11.63,0.8-17.4299c-0.23-5.21,0.97-10.59-0.79-15.61c0.06-6.49,1.02-12.92,1.71-19.35
		c1.38-11.4901,5.89-22.4501,11.95-32.25c7.75-12.41,19.1-22.3401,31.97-29.1801c7.68-4.12,15.85-7.24,24.21-9.66
		c3.98-1.12,8.17-0.58,12.25-0.6799L1042.41,1120.4399z"/>
	<path fill="#CAC6C3" stroke="#CAC6C3" stroke-width="0.3" d="M365.64,1121.11c11.3-0.09,22.63-0.38,33.92,0.16
		c-9.12,1.4-18.4,0.22-27.59,0.6699C369.9,1121.7,367.35,1122.6,365.64,1121.11z"/>
	<path fill="#BDBFC1" stroke="#BDBFC1" stroke-width="0.3" d="M663.17,1120.67c7.92,11.12,8.06,26.64,2.33,38.76
		c-7,15.59-24.5,25.62-41.5,23.6399c-7.72-0.8899-15.95-3.33-21.28-9.2899c7.32,3.3099,15.07,6.35,23.27,5.9299
		c17.08-0.21,33.22-12.1,38.39-28.39C667.88,1141.35,666.59,1130.47,663.17,1120.67z"/>
	<path fill="#FCFEFF" stroke="#FCFEFF" stroke-width="0.3" d="M325.36,1122.03l1.43-0.3c12.79,0.8,25.63-0.33,38.41,0.64
		c-8.03,0.97-16.14,0.2-24.2,0.46C335.8,1122.5,330.42,1123.59,325.36,1122.03z"/>
	<path fill="#619C9A" stroke="#619C9A" stroke-width="0.3" d="M622.4,1122.58c8.12-1.61,16.64,4.3,18.15,12.41
		c2.19,9.01-5.23,18.67-14.48,19.01c-8.52,0.78-16.57-6.47-16.86-14.99C608.69,1131.24,614.67,1123.7,622.4,1122.58z"/>
	<path fill="#BDBFC1" stroke="#BDBFC1" stroke-width="0.3" d="M406.73,1124.1l1.53-0.15c5.94,2.4401,12.07,4.5801,17.63,7.8501
		c0.28,0.21,0.83,0.62,1.11,0.8199c-1.64-0.58-3.28-1.21-4.99-1.49c-3.38,0.61-6.48,2.1899-9.7,3.33
		c-41.64,15.4701-84.14,28.5601-127.1,39.8401c-8.28,1.99-16.45,4.6499-24.9,5.86c3.13-2.5901,7.42-2.5701,11.15-3.75
		c50.32-12.74,100.2-27.62,148.6-46.4501C415.92,1127.33,411.08,1126.26,406.73,1124.1z"/>
	<path fill="#D2D3D5" stroke="#D2D3D5" stroke-width="0.3" d="M564.08,1135.61c10.13-0.61,18.83,9.46,17.51,19.34
		c-0.92,8.3201-8.39,15.2301-16.78,15.41c-0.32,10.17-0.17,20.36-0.05,30.54c4.58,0.72,9.37,2.2,12.46,5.89
		c5.6,6.0299,5.91,15.89,0.91,22.38c-3.25,4.5299-8.82,6.34-14.11,7.0499c0.02-5.0599,0.15-10.12-0.39-15.15
		c1.05-19.2899,0.3-38.6799,0.47-58.0099l-0.84,0.72C565.07,1154.52,563.7,1144.98,564.08,1135.61z"/>
	<path fill="#D2D3D5" stroke="#D2D3D5" stroke-width="0.3" d="M700.32,1136.4301c5.27-1.5,11.43-1.14,15.87,2.35
		c4.98,3.65,7.96,9.9,7.09,16.11c-0.55,9.02-9.41,16.12-18.3,15.39c-8.88-0.22-16.74-8.3101-16.33-17.25
		C688.35,1145.6801,693.42,1138.76,700.32,1136.4301z"/>
	<path fill="#D2D3D5" stroke="#D2D3D5" stroke-width="0.3" d="M762.97,1141.97c3.79-3.65,8.57-6.7,14.0601-6.38
		c9.3199-0.48,17.49,8.25,17.2,17.41c0.22,8.23-6.33,15.98-14.57,16.9c-4.14-0.5701-8.55-0.8101-12.3799,1.16
		c-0.38-0.5801-1.14-1.75-1.53-2.3401c0.75,0.01,2.23,0.03,2.97,0.03c-2.91-1.88-6.08-4.1-6.86-7.71
		C760.46,1154.73,761.42,1148.15,762.97,1141.97z"/>
	<path fill="#D2D3D5" stroke="#D2D3D5" stroke-width="0.3" d="M837.19,1139.16c5.72-4.74,14.11-4.4301,20.42-1.05
		c-1.12,10.87-2.94,21.74-6.61,32.0701c-7.5,1.11-15.44-2.4601-18.79-9.41C828.19,1153.6,830.6,1143.9301,837.19,1139.16z"/>
	<path fill="#BDBFC1" stroke="#BDBFC1" stroke-width="0.3" d="M456.75,1159.0699c0.17,0.3201,0.52,0.9601,0.69,1.28
		c-35.12,13.84-71.16,25.3-107.45,35.6801c-3.95,1.1799-8.29,1.6699-11.56,4.4299c-1.58,0.02-3.15-0.25-4.72-0.2999
		c1.72-0.86,3.43-1.75,5.26-2.35C378.7,1186.45,418.41,1174.5699,456.75,1159.0699z"/>
	<path fill="#E6E7E8" stroke="#E6E7E8" stroke-width="0.3" d="M457.44,1160.35c0.17,0.3101,0.49,0.9401,0.65,1.25
		c1.58,4.97,4.54,9.34,6.23,14.27c1.09,3.13,2.14,6.29,3.83,9.16c0.98,2.1599,1.85,4.36,2.68,6.59c-2.29,2.36-0.62,5.65-0.54,8.49
		c-39.52-3.61-79.32-3.86-118.93-1.63c-3.32,0.13-6.64,0.54-9.83,1.53c-0.77,0.11-2.32,0.34-3.1,0.45
		c3.27-2.76,7.61-3.25,11.56-4.4299C386.28,1185.65,422.32,1174.1899,457.44,1160.35z"/>
	<path fill="#BDBFC1" stroke="#BDBFC1" stroke-width="0.3" d="M458.09,1161.6c4.59,7.2101,7.76,15.23,10.06,23.4301
		c-1.69-2.87-2.74-6.03-3.83-9.16C462.63,1170.9399,459.67,1166.5699,458.09,1161.6z"/>
	<path fill="#619C9A" stroke="#619C9A" stroke-width="0.3" d="M767.28,1171.0601c3.83-1.9701,8.24-1.7301,12.3799-1.16
		c3.59,1.59,7.39,3.9,8.6,7.89c1.24,3.61-0.76,7.63-3.97,9.47c-3.59,2.41-8.09,1.97-12.18,1.6799c-3.5-1.5299-6.78-3.75-8.62-7.1799
		C761.8,1177.64,763.95,1173.5,767.28,1171.0601z"/>
	<path fill="#FAC458" stroke="#FAC458" stroke-width="0.3" d="M1003.04,1184.52c14.2,8.73,29.04,16.95,45.33,21.04
		c10.77,2.72,22.09,2.9199,33.09,1.6c19.4301-2.88,36.99-12.49,53.5-22.65c9,22.65,17.89,45.37,28.0701,67.53
		c2.96,6.0599,5.6,12.4299,9.98,17.6599c-0.91,4.16-1.91,8.3201-3.27,12.38c-7.1799,22.29-22.37,41.77-41.9299,54.5901
		c-13.5,8.9399-29.0901,14.6-45.13,16.73c-23.25,2.96-47.4401-1.65-67.7401-13.4301c-9.23-5.14-17.27-12.0599-24.79-19.4
		c-9.52-10.7599-17.2-23.13-22.07-36.6699c-1.32-4.48-2.45-9-3.68-13.49c5.16-5.98,8.14-13.39,11.54-20.4301
		C985.69,1228.46,994.35,1206.48,1003.04,1184.52 M1017.18,1224.3c-6.23,1.5599-10.62,8.21-9.41,14.5699
		c0.88,6.67,7.68,11.76,14.33,10.78c6.5801-0.7001,11.9301-7.0701,11.26-13.7001C1033.1801,1228.1,1024.6801,1222.03,1017.18,1224.3
		 M1112.37,1224.45c-6.2,1.8301-10.3199,8.7301-8.8,15.0601c1.1801,6.12,7.29,10.74,13.51,10.2
		c6.8301-0.3099,12.64-6.7999,11.99-13.64C1128.97,1227.97,1120,1221.77,1112.37,1224.45 M1066.91,1244.98
		c-3.67,10.03-8.0801,19.85-10.4501,30.3101c-1.02,5.3999-2.0399,11.4099,0.78,16.48c2.17,4.1799,7.36,5.46,11.74,5.16
		c3.47-0.3,7.46-1.2301,9.4501-4.39c2.5-3.63,2.5099-8.3101,1.97-12.5c-1.76-13.04-7.78-24.89-12-37.1901
		C1067.66,1243.39,1067.17,1244.1,1066.91,1244.98 M1036.98,1311.26c0.37,5.33,3.26,10.1799,7.05,13.83
		c11.58,10.85,30.49,12.04,43.97,4.0701c6.28-3.85,11.96-10.25,12.24-17.9401C1079.15,1311.41,1058.0601,1311.33,1036.98,1311.26z"
		/>
	<path fill="#FAC458" stroke="#FAC458" stroke-width="0.3" d="M162.95,1189.84c8.22-3.9099,17.7-4.7,26.55-2.76
		c17.91,3.9801,31.73,21.12,31.56,39.51c0.25,13.3101-6.57,26.3201-17.42,33.9701c-7.18,4.8999-15.88,7.6599-24.6,7.33
		c-11.57-0.17-22.73-5.77-30.25-14.48c-8.2-9.85-11.56-23.54-8.43-36.01C143.18,1205.4,151.74,1194.95,162.95,1189.84z"/>
	<path fill="#619C9A" stroke="#619C9A" stroke-width="0.3" d="M818.11,1187.0699c6.29-1.7799,13.79-0.8999,18.11,4.4801
		c0.22,0.23,0.65,0.6799,0.8701,0.9099c2.04,4,0.85,8.7001-2.6,11.48c-3.36,1.9801-7.32,2.05-11.09,2.39
		c-4.65-1.89-10.4-4.64-10.86-10.34C812.05,1192.01,815.15,1189.12,818.11,1187.0699z"/>
	<path fill="#FAC458" stroke="#FAC458" stroke-width="0.3" d="M1243.52,1186.47c5.16-0.97,10.49-1.02,15.65-0.01
		c14.9099,2.66,27.48,14.4301,31.62,28.9401c3.5699,12.86,0.5599,27.3099-8.1001,37.51c-10.1699,12.2999-27.84,17.59-43.09,12.77
		c-4.13-1.28-8.0599-3.16-11.6-5.6101c-11.7-8.1799-18.64-22.6899-17.21-36.95C1211.91,1205.38,1226.1,1189.72,1243.52,1186.47z"/>
	<path fill="#BDBFC1" stroke="#BDBFC1" stroke-width="0.3" d="M806.41,1192.42c2.28-4.2201,7.35-5.0901,11.7-5.3501
		c-2.96,2.05-6.06,4.9401-5.57,8.92c0.46,5.7,6.21,8.45,10.86,10.34c-4.35,1.0701-9.1801,0.87-12.91-1.85
		C806.57,1202.11,803.82,1196.7,806.41,1192.42z"/>
	<path fill="#BDBFC1" stroke="#BDBFC1" stroke-width="0.3" d="M351.36,1198.48c39.61-2.23,79.41-1.98,118.93,1.63l0.12,0.9301
		c-10.22-0.24-20.39-1.42-30.61-1.75c6.04,4.7999,12.94,8.37,19.22,12.84c4.07,3.01,8.9,5.13,12.23,9.0599
		c-4.25-1.5499-7.65-4.6299-11.43-7c-6.79-4.6-13.74-8.9299-20.55-13.49c-2.67-2.0399-6.17-1.6699-9.32-1.83
		c-8.55-0.17-17.11-0.48-25.67-0.2c4.56,5.13,10.14,9.22,15.01,14.0499c14.74,13.23,29.01,26.98,43.1,40.9
		c2.71,2.87,6.36,5.0601,7.95,8.83c-6-4.5-10.97-10.2-16.39-15.36c-16.64-16.4-33.88-32.1899-51.3-47.75
		c-1.22-1.26-3.11-0.95-4.67-1.0499c-13.11,0.01-26.22,0.52-39.31,1.1899c-5.27,0.48-10.67-0.0499-15.79,1.5
		c-0.34-0.24-1.01-0.73-1.35-0.97C344.72,1199.02,348.04,1198.61,351.36,1198.48z"/>
	<path fill="#392113" stroke="#392113" stroke-width="0.3" d="M329.07,1201.5601c1.55-0.4501,3.1-0.91,4.64-1.4
		c1.57,0.0499,3.14,0.3199,4.72,0.2999c0.78-0.11,2.33-0.34,3.1-0.45c0.34,0.24,1.01,0.73,1.35,0.97
		c2.52,1.87,4.99,3.8201,7.31,5.9501C342.85,1206.89,335.83,1204.16,329.07,1201.5601z"/>
	<path fill="#D2D3D5" stroke="#D2D3D5" stroke-width="0.3" d="M631.36,1201.4399c7.21-1.6399,15.25,1.91,18.86,8.3601
		c3.73,6.38,2.83,14.85-2.06,20.36c-3.65,3.74-8.87,6.27-14.19,5.74c-8.93-0.38-16.73-8.9-16.18-17.85
		C617.68,1210.29,623.93,1203.13,631.36,1201.4399z"/>
	<path fill="#D2D3D5" stroke="#D2D3D5" stroke-width="0.3" d="M702.4,1201.45c10.18-2.6,21.0699,6.13,20.9,16.5801
		c0.6,9.1-7.12,17.62-16.25,17.85c-9.49,0.95-18.34-7.4401-18.43-16.84C688.23,1210.87,694.36,1203.01,702.4,1201.45z"/>
	<path fill="#D2D3D5" stroke="#D2D3D5" stroke-width="0.3" d="M773.37,1201.4399c10.07-2.58,20.96,6.25,20.81,16.55
		c0.72,9.71-8.46,18.73-18.15,17.92c-10.6-0.16-19.2-11.66-15.94-21.8301C761.48,1207.64,767.04,1202.77,773.37,1201.4399z"/>
	<path fill="#D2D3D5" stroke="#D2D3D5" stroke-width="0.3" d="M838.09,1204.09c3.7-0.6799,7.3199-1.83,10.7-3.52
		c5.2,1.28,10.41,3.55,13.4,8.2401c4.94,7.0399,3.48,17.6799-3.32,23.0199c-7.97,7.54-22.61,4.16-26.9-5.7999
		C828.28,1218.52,830.83,1208.46,838.09,1204.09z"/>
	<path fill="#FAC458" stroke="#FAC458" stroke-width="0.3" d="M285.76,1212.46c14.48-3.47,28.91-7.14,43.31-10.8999
		c6.76,2.6,13.78,5.33,21.12,5.37l0.67,0.1699c0.34,1.88,2.21,2.7001,3.86,3.22c0.24,0.1801,0.71,0.54,0.95,0.7201
		c1.65,1.5499,3.38,3.01,5.23,4.34c0.2,0.17,0.6,0.51,0.81,0.67c1.93,1.9099,3.99,3.6899,6.2,5.2799
		c0.21,0.17,0.62,0.52,0.82,0.6901c1.9,1.9199,3.94,3.7,6.1,5.34c0.62,0.54,1.25,1.09,1.88,1.66c2.24,2.2999,4.65,4.41,7.17,6.4
		c0.84,0.7799,1.71,1.5599,2.58,2.35c3.31,3.5599,6.83,6.9299,10.7,9.88c1.15,1.15,2.34,2.27,3.55,3.37
		c9.06,9.1,18.14,18.2,27.25,27.25c1.47,1.66,3.01,3.27,4.6,4.84c2.93,3.5601,6.1,6.9301,9.41,10.15c0.55,0.62,1.11,1.25,1.68,1.89
		c2.24,2.87,4.67,5.58,7.33,8.0699c0.78,1.11,1.55,2.24,2.33,3.39c-11.51,16.9401-27.47,30.99-46.35,39.13
		c-17.84,8.04-37.87,10.65-57.25,8.39c-22.9-2.89-44.82-13.25-61.35-29.4c-11.81-11.45-20.89-25.72-26.11-41.3199
		c-1.5-4.3301-2.45-8.8-3.54-13.2201c4.07-4.7799,6.56-10.62,9.31-16.1899C274.37,1240.34,280.21,1226.45,285.76,1212.46
		 M313.32,1224.48c-6.24,1.03-11.13,7.15-10.57,13.5c0.16,6.75,6.47,12.6,13.23,12.14c7.32,0.14,13.52-7.0699,12.52-14.27
		C327.96,1228.6,320.42,1222.97,313.32,1224.48 M363.56,1243.09c-4.36,12.86-10.73,25.27-12.16,38.9501
		c-0.65,5.1599,0.56,11.5399,5.67,14.0699c4.54,2.05,10.15,1.91,14.53-0.47c4.45-2.64,5.24-8.3201,4.89-13.03
		c-0.92-10.8099-5.19-20.91-9.07-30.9299C366.2,1248.78,365.41,1245.66,363.56,1243.09 M331.44,1311.9399
		c0.97,8.7101,7.6,15.75,15.29,19.3501c12.1,5.74,27.38,4.74,38.32-3.13c5.36-3.8101,9.22-9.7001,10.19-16.24
		C373.98,1311.89,352.71,1311.88,331.44,1311.9399z"/>
	<path fill="#3C2515" stroke="#3C2515" stroke-width="0.3" d="M254.09,1219.66c10.6-2.1901,21.15-4.65,31.67-7.2001
		c-5.55,13.99-11.39,27.88-17.74,41.54c-2.75,5.5699-5.24,11.41-9.31,16.1899c-0.42-0.0099-1.25-0.0299-1.66-0.0399
		c-0.44-2.85-0.81-5.7101-1.06-8.5601c1.43-2.6699,0.91-5.72,0.7-8.58c-0.36,0.36-1.07,1.1-1.43,1.46
		C254.08,1242.9,254.06,1231.27,254.09,1219.66z"/>
	<path fill="#240A00" stroke="#240A00" stroke-width="0.3" d="M961.01,1212.41c1.76,5.02,0.56,10.4,0.79,15.61
		c-0.3,5.7999,1.09,11.79-0.8,17.4299C960.28,1234.45,960.24,1223.4,961.01,1212.41z"/>
	<path fill="#F2F4F5" stroke="#F2F4F5" stroke-width="0.3" d="M470.28,1222.21l1.55,0.1801c0.07,7.58,0.27,15.1899-0.52,22.75
		c-1.78-0.64-1.09-2.8-1.32-4.17C470.13,1234.71,470.18,1228.46,470.28,1222.21z"/>
	<path fill="#3C2515" stroke="#3C2515" stroke-width="0.3" d="M313.32,1224.48c7.1-1.51,14.64,4.12,15.18,11.37
		c1,7.2001-5.2,14.41-12.52,14.27c-6.76,0.46-13.07-5.39-13.23-12.14C302.19,1231.63,307.08,1225.51,313.32,1224.48z"/>
	<path fill="#3C2515" stroke="#3C2515" stroke-width="0.3" d="M1017.18,1224.3c7.5001-2.27,16.0001,3.7999,16.18,11.6499
		c0.67,6.63-4.6799,13-11.26,13.7001c-6.65,0.98-13.45-4.11-14.33-10.78C1006.56,1232.51,1010.95,1225.86,1017.18,1224.3z"/>
	<path fill="#3C2515" stroke="#3C2515" stroke-width="0.3" d="M1112.37,1224.45c7.63-2.6799,16.6,3.52,16.7,11.62
		c0.65,6.8401-5.1599,13.3301-11.99,13.64c-6.22,0.54-12.33-4.08-13.51-10.2C1102.05,1233.1801,1106.17,1226.28,1112.37,1224.45z"/>
	<path fill="#F7964A" stroke="#F7964A" stroke-width="0.3" d="M363.56,1243.09c1.85,2.5701,2.64,5.6901,3.86,8.5901
		c3.88,10.0199,8.15,20.12,9.07,30.9299c0.35,4.71-0.44,10.39-4.89,13.03c-4.38,2.38-9.99,2.52-14.53,0.47
		c-5.11-2.53-6.32-8.91-5.67-14.0699C352.83,1268.36,359.2,1255.95,363.56,1243.09z"/>
	<path fill="#F7964A" stroke="#F7964A" stroke-width="0.3" d="M1066.91,1244.98c0.26-0.88,0.75-1.59,1.49-2.13
		c4.22,12.3,10.24,24.15,12,37.1901c0.5399,4.1899,0.53,8.87-1.97,12.5c-1.9901,3.1599-5.9801,4.09-9.4501,4.39
		c-4.38,0.2999-9.5699-0.9801-11.74-5.16c-2.8199-5.0701-1.8-11.0801-0.78-16.48C1058.83,1264.83,1063.24,1255.01,1066.91,1244.98z"
		/>
	<path fill="#280E01" stroke="#280E01" stroke-width="0.3" d="M961.3,1251.27c0.38-1.14,0.78-2.25,1.21-3.3301
		c0.22,3.54,1.29,7.38-0.46,10.7201C961.78,1256.1801,961.47,1253.73,961.3,1251.27z"/>
	<path fill="#270D02" stroke="#270D02" stroke-width="0.3" d="M255.26,1254.47c0.36-0.36,1.07-1.1,1.43-1.46
		c0.21,2.86,0.73,5.91-0.7,8.58C255.74,1259.2,255.46,1256.84,255.26,1254.47z"/>
	<path fill="#CFC1CE" stroke="#CFC1CE" stroke-width="0.3" d="M1239.6,1265.6801c15.25,4.8199,32.92-0.4701,43.09-12.77
		c0.3201,17.26-1.6899,34.62-6.37,51.25c-5.1899,18.76-14.46,36.39-27.0699,51.23c-17.63,20.59-40.9,35.98-65.88,46.17
		c-8.38,4.23-17.36,7.09-26.23,10.11c1.77,14.08,3.11,28.21,4.11,42.36c0.17,2.0599,0.15,4.3099,1.36,6.11
		c-0.91,2.53-0.62,5.24-0.47,7.88c0.71,16,1.2999,32.02,0.74,48.04c-0.09,6.84-1.0601,13.6799-0.4401,20.5199
		c-0.85,2.03-0.7999,4.26-0.98,6.4401c-0.71,8.6-1.62,17.1799-2.8099,25.73c-4.7001-0.02-9.39,0.01-14.0701-0.05
		c0.0901,33.6001,0.01,67.1901,0.04,100.78c0.09,5.5701,0.04,11.16,0.03,16.74c-12.5701-0.1899-25.15,0.35-37.72,0.1901
		c-0.7401-9.11-1.5701-18.2001-2.1801-27.3101c-0.4399-0.2899-1.33-0.87-1.78-1.16l1.62,0.4601
		c-2.36-29.9501-4.9-59.88-7.21-89.8301c-11.46-1.22-22.96,0.4-34.4401,0.13c-7,0.03-13.99-0.1-20.99,0.1001
		c-1.9099,21.8099-3.71,43.63-5.36,65.46c-0.25,3.03-0.52,6.08-0.85,9.13c0.59,0.12,1.76,0.37,2.34,0.49
		c-0.5699,0.01-1.71,0.04-2.2799,0.05c-1.41,14.13-2.16,28.3199-3.53,42.46c-12.48,0.17-24.97-0.3-37.44-0.23
		c-0.31-16.51-0.12-33.04-0.13-49.55c-0.24-20.88-0.02-41.76-0.11-62.63c0.0099-1.86-0.7401-3.58-1.3-5.28
		c-6.14,0.0901-12.28,0.01-18.41,0.0601c-2.63-18.39-3.81-36.98-3.79-55.55c26.81-0.13,53.6199-0.0399,80.43-0.0399
		c13.6,13.1599,36.5699,14.48,51.66,3.08c14.95-10.46,20.96-31.45,13.9099-48.27c-6.49-16.95-25.25-27.97-43.22-25.3099
		c-7.55,0.97-14.58,4.2699-20.66,8.76c-9.45-31.55-19.1799-63.03-28.46-94.63c20.1899-0.12,40.39-0.04,60.6-0.0601
		c19.99,0.01,39.99,0,59.99,0.01c2.2201-0.05,4.53,0.05,6.66-0.77c21.26-8.2,42.3101-19.8099,55.99-38.58
		c11.22-15,17.04-33.48,18.87-51.97c-0.16-0.15-0.48-0.4401-0.63-0.5901c0.6-1.6,1.2001-3.1799,1.77-4.77
		C1231.54,1262.52,1235.47,1264.4,1239.6,1265.6801z"/>
	<path fill="#E6E7E8" stroke="#E6E7E8" stroke-width="0.3" d="M148.79,1253.41c7.52,8.71,18.68,14.3099,30.25,14.48
		c8.72,0.33,17.42-2.4301,24.6-7.33c1.87,10.49,2.92,21.2,6.53,31.3099c2.98,9.75,8.05,18.67,13.75,27.0699l0.74,0.77
		c10.84,13.0801,24.81,23.29,40.18,30.4301c7.12,3.02,14.11,7.65,22.13,7.27c18.34-0.2001,36.69,0.1,55.03-0.15
		c3.4-0.17,6.51,1.6799,9.92,1.51c15.92-0.05,31.84-0.09,47.76-0.03c-0.09-0.3099-0.25-0.9299-0.33-1.23
		c0.2-0.3101,0.62-0.9301,0.82-1.23c1.46,0.9,3.08,1.6,4.85,1.48c13.31,0.08,26.64-0.37,39.94,0.09
		c0.88,1.5801,1.43,3.34,2.29,4.9601c3.84,2.3099,8.28,3.37,12.4,5.1c3.73,1.62,7.42,3.34,11.1,5.08
		c0.58,12.05,0.57,24.13,1.48,36.16c0.08,3.36,2.28,6.0699,5.15,7.63c1.31,6.15,2.35,13.14,7.5,17.4
		c2.75,2.3999,6.53,2.58,10,2.8099c0.24,5.39,1.08,11.17,4.77,15.39c2.89,3.55,8.27,4.86,12.35,2.64
		c5.11-2.5601,7.42-8.61,7.28-14.0601c-0.33-11.84-1.35-23.6499-1.73-35.49c7.85,5.52,12.88,14.05,19.3,21.03l-0.15,0.65
		c9.7,14.47,16.52,30.7999,20.31,47.7999c1.32,5.4,1.89,10.9501,3.01,16.4c0.72,8.5701,1.72,17.1901,0.93,25.8
		c-11.14-12.01-29.68-16.48-44.92-10.2001c-3.4301,1.3501-6.67,3.1801-9.66,5.3401c-1.32-9.04-2.26-18.1801-4.79-26.99
		c-4.68-18.03-14.96-34.4301-28.85-46.8201c-0.41,0-1.24-0.01-1.65-0.01l0.29-0.75c-4.96-4.1599-10.31-7.86-15.97-11
		c1.64,13.1,2.79,26.24,4.08,39.37c2.21,34.53,2.97,69.4401-2.43,103.7101c-6.58,0.0499-13.18-0.3201-19.75,0.24
		c0.02,22.73,0.12,45.45-0.06,68.1799c11.92-0.87,23.6-3.86,35.54-4.59c0.41-0.12,1.22-0.35,1.63-0.47
		c17.23-2.54,34.56-4.41,51.9-6.11c19.38-2.03,38.81-3.39,58.23-4.9501c0.07,30.92-0.11,61.84,0.09,92.77
		c-4.13,0.0699-8.26,0.0699-12.39,0.13c0.1,13.9301,0.05,27.87,0.03,41.8101c11.63,0.0199,23.26-0.01,34.89,0.0099
		c-0.0099,1.7101,0,3.4501,0.01,5.2001c-2.57-1.17-5.33-1.86-8.08-2.41c-2.3,3.0701-4.97,5.84-7.41,8.8
		c-0.74,0.9-1.48,1.8199-2.22,2.76c-1.14,0.35-2.08,1.0699-2.95,1.88c-1.61,1.48-3.27,2.9099-5.15,4.0499
		c-3.07,1.5601-5.93,3.49-8.78,5.41c-2.77,1.17-5.76,1.5-8.67,2.14l-0.93,0.87c-14.94,5.98-31.15,10.97-42.81,22.66
		c-4.85,5.34-9.66,13.1-6.33,20.4299c-3.88,3.63-7.22,8.8101-6.04,14.37c0.62,3.8,4.05,6.22,7.23,7.92
		c7.2,3.51,15.23,4.6,23.0099,6.13c20.86,3.9,42.72,4.3199,63.23-1.7101c24.49-7.2599,47.36-19.4099,72.42-24.83
		c3.99-0.9,8.88-2.17,10.16-6.64c2.14-8.13,0.47-17.41-4.64-24.13c-0.97-7.08-3.59-13.76-5.06-20.71
		c-0.77-3.05-0.19-7.0701-3.2-9.01c-2.73-1.88-5.56,0.7-6.95,2.95c-0.69-5.36-0.44-10.76-0.34-16.13
		c13.71-0.0099,27.42-0.0099,41.13,0c-0.0099-13.95-0.06-27.8999,0.02-41.84c-3.97-0.0499-7.95-0.0499-11.91-0.0699
		c1.14-32.29,2.0699-64.5801,3.11-96.86c6.47-0.16,13.01-0.9401,19.42,0.2899c5.13,0.89,10.35,0.3201,15.53,0.4301
		c4.18-0.13,8.54,0.5599,12.55-1.01c0.52-0.04,1.57-0.13,2.1-0.17c0.96,32.4401,2.16,64.88,3.03,97.3301
		c-3.92,0.0299-7.85,0.01-11.76,0.0199c0.04,13.9601-0.07,27.9301,0.05,41.9c13.71-0.0499,27.42-0.02,41.14-0.02
		c0,5.5601,0.19,11.13-0.28,16.6901c-1.11-2.14-3.04-4.63-5.77-4.05c-2.95,0.63-3.91,3.86-4.06,6.5
		c-0.98,9.11-5.85,17.55-5.28,26.87c-0.76-0.25-1.51-0.49-2.25-0.7c-2.95,6.85-4.84,14.67-2.6,22.01
		c1.22,4.26,6.11,5.39,9.87,6.3199c16.96,3.75,33.14,10.2101,49.22,16.67c13.27,5.21,26.87,10,41.08,11.8
		c20.39,2.63,41.03-0.3201,60.86-5.16c5.7-1.6801,12.4-4.0601,14.76-10.0601c1.91-5.7899-2.15-11.1499-5.75-15.24
		c1.04-2.5699,1.51-5.4299,0.71-8.11c-2.16-7.8199-8.03-13.99-14.59-18.45c-11.1-7.5801-23.88-12.12-36.47-16.55
		c0.34-0.1799,1.03-0.5599,1.37-0.74c-3.38-0.4-6.79-0.8099-9.98-2.05c-2.69-1.98-5.5-3.7799-8.37-5.48
		c-1.92-1.1799-3.7-2.5599-5.4-4.01c-0.85-0.72-1.71-1.4099-2.54-2.09c-1.2599-1.13-2.34-2.37-3.41-3.62
		c-2.26-2.49-4.57-4.9399-6.5-7.6899c-2.87,0.4299-5.7,1.1399-8.33,2.3999c0-1.7799,0-3.5299,0.01-5.26
		c11.62,0.02,23.26-0.08,34.89,0.0601c0.12-13.98,0.02-27.96,0.05-41.9401c-4.08,0-8.15,0-12.22-0.0499
		c0.24-30.9501-0.03-61.9,0.14-92.85c8.7,0.39,17.37,1.2,26.06,1.7999l-0.34-1.4199c1.32,1.38,3.17,1.86,5.05,1.95
		c24.54,1.98,49.01,4.72,73.45,7.65c11.11,1.34,22.18,2.97,33.25,4.59c0.01,16.51-0.18,33.04,0.13,49.55
		c-17.38,7.4199-34.54,15.3199-51.9,22.7799c-1.01,0.3401-1.84,1.03-2.57,1.78l-0.86,0.8401c11.45,0.75,22.97,0.12,34.45,0.37
		c18.62-0.13,37.26,0.2,55.8699-0.2101l0.39-1.1799c1.04-8.01,1.41-16.1001,2.0601-24.15c1.37-14.14,2.12-28.33,3.53-42.46
		c0.5699-0.01,1.71-0.04,2.2799-0.05c21.76,4.0599,43.4601,8.52,64.89,14.0599c0.4501,0.29,1.3401,0.8701,1.78,1.16
		c0.61,9.11,1.4399,18.2001,2.1801,27.3101c0.6599,8.0399,1.0499,16.11,2.0699,24.12l0.22,1.1899
		c23.5601,0.4501,47.15,0.03,70.72,0.16c6.29-0.1,12.6001,0.23,18.9-0.1901l0.26-1.1c-6.5-3.71-13.65-6.14-20.4-9.36
		c-11.36-4.98-22.6699-10.09-34.0499-15.01c0.01-5.58,0.0599-11.1699-0.03-16.74c21.22,6.6,42.17,14.17,62.34,23.52
		c16.9401,7.97,33.51,17.11,47.9701,29.1c9.7599,8.24,18.7699,17.98,23.6499,29.9601c4.0901,9.7899,4.3501,21.11,0.7001,31.08
		c-3.49,9.64-9.8401,17.96-17.05,25.13c-11.35,11.1699-24.86,19.86-38.78,27.47c-27.6599,14.8-57.34,25.4-87.34,34.36
		c-39.74,11.72-80.36,20.26-121.2,27.09c-89.67,14.67-180.56,21.26-271.37,22.0801c-3.33-1.48-7.02-1.1-10.55-1.14
		c-6.99-0.08-13.98-0.11-20.97-0.03c-4.2,0.0601-8.52-0.2999-12.54,1.16c-69.27-0.55-138.54-4.8-207.34-13.02
		c-50.66-6.23-101.12-14.64-150.68-26.96c-37.09-9.39-73.93-20.64-108.53-37.17c-17.83-8.64-35.24-18.7-49.77-32.2999
		c-11.28-10.6801-21.01-24.7301-21.23-40.8c-0.2-16.47,9.74-30.98,21.28-41.87c13.06-12.22,28.5-21.59,44.4-29.62
		c19.15-9.72,39.28-17.37,59.61-24.23c-0.08-34.51-0.14-69.03,0.03-103.54c-4.72,0.04-9.44,0.03-14.15,0.02
		c-4.93-36.0601-5.62-72.65-2.93-108.92c0.81-15.34,2.44-30.61,4.04-45.88c0.43-1.5499-0.28-2.9199-1.86-3.25
		c-15.81-5.4399-31.45-11.6599-45.96-20.02c-15.83-8.9399-30.49-20.1499-42.49-33.85c-17.67-20.0399-28.95-45.4399-32.74-71.83
		c-0.28-2.34-0.97-4.59-1.9-6.72c0.17-0.15,0.5-0.4301,0.66-0.5801C149.34,1270.29,148.49,1261.86,148.79,1253.41 M357.57,1569.6801
		c-0.29,0.4099-0.86,1.25-1.14,1.6699l-0.06-1.47c-7.34-0.02-14.7-0.39-22.02,0.1899c-0.15,7.4601-1.49,14.8601-1.4,22.3301
		l-0.28-0.22c-1.72,23.12-3.75,46.22-5.51,69.35c22.8-6.4,46-11.25,69.2-15.9501c-0.72-3.49,0.04-7.6499-1.52-10.72
		c0.2-4.37,1-9.58-1.65-13.3199c0.34-0.8501,0.68-1.6801,1.02-2.5c-1.65-16.1001-2.43-32.29-4.17-48.39
		c2.17-1.14,4.67-0.99,7.04-1.05c5.94-0.0699,11.89,0.02,17.83-0.0699C395.79,1569.17,376.69,1570.21,357.57,1569.6801
		 M232.77,1711.72c30.05,0.24,60.12,0.02,90.18,0.11c0.84-7.96,1.22-15.96,2.07-23.8999c-12.63-0.02-25.29-0.5601-37.91-0.2401
		C268.92,1695.5,250.79,1703.52,232.77,1711.72 M399.82,1687.91c0.45,8,1.18,15.99,1.9,23.98c30.1-0.21,60.2,0.0699,90.29-0.14
		c-10.64-5.02-21.52-9.54-32.25-14.38c-7.61-3.17-14.98-7.02-22.74-9.77C424.62,1687.5,412.22,1687.86,399.82,1687.91z"/>
	<path fill="#D2D3D5" stroke="#D2D3D5" stroke-width="0.3" d="M564.07,1266.6801c10.36-0.53,19.08,9.86,17.44,19.9399
		c-0.97,8.4401-9.03,15.0699-17.44,14.88C564.16,1289.89,564.09,1278.28,564.07,1266.6801z"/>
	<path fill="#D2D3D5" stroke="#D2D3D5" stroke-width="0.3" d="M630.28,1267.36c8.81-2.7999,18.98,2.8,21.52,11.63
		c2.27,6.97-0.59,15.14-6.64,19.25c-4.47,3.39-10.59,3.97-15.85,2.36c-5.47-2.09-10.1-6.86-11.17-12.73
		C616.07,1279.23,621.61,1269.58,630.28,1267.36z"/>
	<path fill="#D2D3D5" stroke="#D2D3D5" stroke-width="0.3" d="M701.22,1267.37c10.11-3.26,22.14,4.9,22.11,15.6901
		c0.93,9.2699-7.01,18.22-16.33,18.33c-8.92,0.8199-17.69-6.4301-18.29-15.41C687.68,1277.75,693.2,1269.48,701.22,1267.37z"/>
	<path fill="#D2D3D5" stroke="#D2D3D5" stroke-width="0.3" d="M772.2,1267.36c9.8-3.17,21.24,4.4301,21.88,14.74
		c1.55,9.8201-7.11,19.86-17.14,19.3c-10.13,0.62-18.9-9.59-17.34-19.48C760.37,1275.13,765.5,1268.96,772.2,1267.36z"/>
	<path fill="#D2D3D5" stroke="#D2D3D5" stroke-width="0.3" d="M842.38,1267.48c5.24-1.4299,11.28-0.89,15.65,2.55
		c7.5,5.2,9.3799,16.59,3.99,23.96c-4.54,7.26-15.01,9.6901-22.36,5.42c-3.72-2.1901-7.17-5.37-8.3799-9.63
		C827.93,1281,833.4,1270.16,842.38,1267.48z"/>
	<path fill="#E6E7E8" stroke="#E6E7E8" stroke-width="0.3" d="M471.72,1244.58l-0.4099,0.5601c-1.78-0.64-1.0901-2.8-1.3201-4.17
		c0.14-6.26,0.1899-12.51,0.29-18.76l1.55,0.1801c-0.3501-7.13-0.66-14.26-1.42-21.35c-10.22-0.24-20.39-1.42-30.61-1.75
		c6.04,4.7999,12.94,8.37,19.22,12.84c4.0701,3.01,8.9,5.13,12.23,9.0599c-4.25-1.5499-7.6499-4.6299-11.43-7
		c-6.79-4.6-13.74-8.9299-20.55-13.49c-2.67-2.0399-6.17-1.6699-9.32-1.83c-8.55-0.17-17.11-0.48-25.67-0.2
		c4.56,5.13,10.14,9.22,15.01,14.0499c14.74,13.23,29.0099,26.98,43.1,40.9c2.7101,2.87,6.36,5.0601,7.9501,8.83
		c-6-4.5-10.9701-10.2-16.3901-15.36c-16.64-16.4-33.88-32.1899-51.3-47.75c-1.22-1.26-3.11-0.95-4.67-1.0499
		c-13.11,0.01-26.22,0.52-39.31,1.1899c-5.27,0.48-10.67-0.0499-15.79,1.5c2.52,1.87,4.99,3.8201,7.31,5.9501l0.67,0.1699
		c0.34,1.88,2.21,2.7001,3.86,3.22c0.24,0.1801,0.71,0.54,0.95,0.7201c1.65,1.5499,3.3799,3.01,5.23,4.34
		c0.2,0.17,0.6,0.51,0.81,0.67c1.93,1.9099,3.99,3.6899,6.2,5.2799c0.21,0.17,0.62,0.52,0.82,0.6901c1.9,1.9199,3.94,3.7,6.1,5.34
		c0.62,0.54,1.25,1.09,1.88,1.66c2.24,2.2999,4.65,4.41,7.17,6.4c0.84,0.7799,1.71,1.5599,2.58,2.35
		c3.31,3.5599,6.83,6.9299,10.7,9.88c1.15,1.15,2.34,2.27,3.55,3.37c9.06,9.1,18.14,18.2,27.25,27.25c1.47,1.66,3.01,3.27,4.6,4.84
		c2.93,3.5601,6.1,6.9301,9.41,10.15c0.55,0.62,1.11,1.25,1.68,1.89c2.24,2.87,4.67,5.58,7.33,8.0699c0.78,1.11,1.55,2.24,2.33,3.39
		c6.29-8.99,10.59-19.28,13.34-29.87c1.13-4.42,3.5699-8.46,3.87-13.08C470.9,1257.3,472.4299,1250.97,471.72,1244.58z"/>
	<path fill="#ED3237" stroke="#ED3237" stroke-width="0.3" d="M1036.98,1311.26c21.0801,0.0699,42.17,0.15,63.26-0.04
		c-0.28,7.6901-5.96,14.0901-12.24,17.9401c-13.48,7.97-32.39,6.7799-43.97-4.0701
		C1040.24,1321.4399,1037.35,1316.59,1036.98,1311.26z"/>
	<path fill="#ED3237" stroke="#ED3237" stroke-width="0.3" d="M331.44,1311.9399c21.27-0.0599,42.54-0.0499,63.8-0.0199
		c-0.97,6.5399-4.83,12.4299-10.19,16.24c-10.94,7.87-26.22,8.87-38.32,3.13C339.04,1327.6899,332.41,1320.65,331.44,1311.9399z"/>
	<path fill="#D2D3D5" stroke="#D2D3D5" stroke-width="0.3" d="M564.19,1331.9301c3.56,0.6699,7.35,1.24,10.26,3.6
		c5.69,4.08,8.73,11.72,6.72,18.53c-1.01,4.0199-3.81,7.1899-6.53,10.1899c-3.69,0.3199-8.67-1.39-10.75,2.71
		c0.23-8.45,0.31-16.9199-0.25-25.36C563.98,1338.38,564.24,1335.15,564.19,1331.9301z"/>
	<path fill="#D2D3D5" stroke="#D2D3D5" stroke-width="0.3" d="M617.82,1348.03c0.53-9.8401,11.03-17.5701,20.6-15.49
		c9.95,1.47,16.53,13.0299,13.34,22.4299c-0.98,3.9-3.91,6.8201-6.94,9.28c-6.53,0.0601-13.06,0.09-19.59,0
		C620.25,1360.51,617.13,1354.3,617.82,1348.03z"/>
	<path fill="#D2D3D5" stroke="#D2D3D5" stroke-width="0.3" d="M691.78,1339.72c4.47-6.75,14.04-9.5399,21.3199-5.83
		c6.88,2.9399,11.2,10.62,10.15,18.03c-0.42,5.0399-3.62,9.22-7.39,12.34c-6.56,0.08-13.11,0.03-19.66-0.03
		C688.45,1358.95,686.07,1347.3,691.78,1339.72z"/>
	<path fill="#D2D3D5" stroke="#D2D3D5" stroke-width="0.3" d="M764.98,1337.02c5.19-5.3,14.09-6.25,20.42-2.4501
		c6.72,3.5901,10.3,12,8.35,19.3601c-0.97,4.1499-3.86,7.45-6.89,10.2999c-6.56,0.14-13.12,0.09-19.67-0.01
		c-2.24-1.9099-4.64-3.8199-5.88-6.5499C757.88,1350.9399,759.44,1342.15,764.98,1337.02z"/>
	<path fill="#D2D3D5" stroke="#D2D3D5" stroke-width="0.3" d="M844.59,1332.52c9.95-2.09,20.39,6.27,20.5,16.4299
		c0.5099,6.0601-2.91,11.5-7.3,15.3401c-6.82,0.01-13.64,0.08-20.45-0.03c-2.88-3.25-5.95-6.6901-6.66-11.13
		C828.43,1343.9301,835.28,1333.9399,844.59,1332.52z"/>
	<path fill="#3DA3B9" stroke="#3DA3B9" stroke-width="0.3" d="M975.09,1372.2c1.2-5.1699,2.3199-10.35,3.67-15.47
		c10.99-0.03,21.98-0.22,32.98-0.02c4.33,0.1001,8.67,0.0801,13.01,0.0901c9.28,31.6,19.01,63.08,28.46,94.63
		c6.2201,20.5599,12.36,41.1399,18.66,61.6699c-6.79,0.1-13.5699-0.01-20.35,0.0701c-26.8101,0-53.62-0.0901-80.43,0.0399
		c-9.82,0.01-19.63,0-29.44,0c3.7599-15.7899,7.54-31.58,11.19-47.3999C960.4,1434.64,967.59,1403.38,975.09,1372.2z"/>
	<path fill="#BDBFC1" stroke="#BDBFC1" stroke-width="0.3" d="M563.89,1366.96c2.08-4.1,7.06-2.39,10.75-2.71
		c16.86,0.16,33.73,0.12,50.59,0c6.53,0.09,13.06,0.0601,19.59,0c17.12,0.15,34.25,0.15,51.38-0.02
		c6.55,0.0601,13.1,0.11,19.66,0.03c17.11,0.08,34.22,0.16,51.33-0.04c6.55,0.1,13.11,0.15,19.67,0.01
		c16.83,0.16,33.65,0.16,50.48,0.03c6.81,0.11,13.6299,0.04,20.45,0.03c5.02,0.0599,10.04,0.13,15.07-0.11
		c0.12,9.98,0.03,19.96,0.09,29.9399c-5.26,0.2-10.53,0.05-15.79,0.11c-39.56,0.1801-79.11,0.02-118.66,0.09
		c-7.44-0.0299-14.87,0.03-22.3-0.0299c-4.35-0.0801-8.69-0.1001-13.03-0.04c-39.47,0.12-78.94,0.04-118.41,0.04l-0.68,0.01
		c-6.65,0.0299-13.3,0.0199-19.94-0.01C563.72,1385.1801,564.52,1376.0601,563.89,1366.96z"/>
	<path fill="#F6F6F7" stroke="#F6F6F7" stroke-width="0.3" d="M516.49,1389.96c3.4,5.01,5.58,10.7101,8.76,15.8501
		c3.32,5.3099,10.13,7.97,16.19,6.35c-1.55,4.77-3.07,9.5499-4.59,14.34c-6.42-6.98-11.45-15.51-19.3-21.03
		C517.26,1400.29,516.91,1395.12,516.49,1389.96z"/>
	<path fill="#5BBBA6" stroke="#5BBBA6" stroke-width="0.3" d="M584.76,1394.29c39.47,0,78.94,0.08,118.41-0.04
		c-2.35,74.6-4.77,149.2-7.16,223.8c-1.04,32.2799-1.97,64.5699-3.11,96.86c-35.69-0.14-71.39,0.08-107.08-0.0801
		c-0.44-50.58-0.02-101.1799-0.16-151.76c0.06-55.0099-0.11-110.0299,0.05-165.0299c-0.11-1.28-0.41-2.49-0.93-3.65L584.76,1394.29z
		"/>
	<path fill="#5BBBA6" stroke="#5BBBA6" stroke-width="0.3" d="M738.5,1394.3199c39.55-0.0699,79.1,0.0901,118.66-0.09
		c0.17,37.16-0.19,74.3201,0.15,111.48c-0.16,38.77,0.01,77.55-0.08,116.3301c-0.17,30.95,0.1,61.8999-0.14,92.85
		c-36.15-0.03-72.3-0.04-108.45,0.03c-0.87-32.4501-2.07-64.89-3.03-97.3301C743.19,1543.17,740.78,1468.75,738.5,1394.3199z"/>
	<path fill="#3BA990" stroke="#3BA990" stroke-width="0.3" d="M584.78,1394.39c0.52,1.16,0.8199,2.37,0.93,3.65
		c-0.16,55,0.0099,110.02-0.05,165.0299c0.14,50.5801-0.28,101.1801,0.16,151.76c35.69,0.16,71.39-0.0599,107.08,0.0801
		c3.96,0.02,7.94,0.02,11.91,0.0699c-0.08,13.9401-0.03,27.89-0.02,41.84c-13.71-0.0099-27.42-0.0099-41.13,0
		c-18.83,0-37.67,0-56.5,0c-11.6299-0.0199-23.2599,0.01-34.89-0.0099c0.02-13.9401,0.07-27.88-0.03-41.8101
		c4.13-0.0601,8.26-0.0601,12.39-0.13c-0.2-30.9301-0.02-61.85-0.09-92.77c-0.0099-49.36-0.0099-98.72-0.02-148.0699
		C584.69,1447.48,584.17,1420.92,584.78,1394.39z"/>
	<path fill="#FAC458" stroke="#FAC458" stroke-width="0.3" d="M1073.87,1442.67c17.97-2.66,36.73,8.36,43.22,25.3099
		c7.05,16.8201,1.04,37.8101-13.9099,48.27c-15.0901,11.4-38.0601,10.08-51.66-3.08c6.78-0.0801,13.5599,0.0299,20.35-0.0701
		c-6.3-20.53-12.4399-41.11-18.66-61.6699C1059.29,1446.9399,1066.3199,1443.64,1073.87,1442.67z"/>
	<path fill="#FAC458" stroke="#FAC458" stroke-width="0.3" d="M516.03,1506.95c15.24-6.2799,33.78-1.8099,44.92,10.2001
		c9.75,10.53,13.49,26.21,9.11,39.9299c-4.42,14.9301-18,26.53-33.44,28.55c-17.73,2.73-36.46-7.67-43.18-24.35
		c-7.76-16.76-1.9-38.14,12.93-48.99C509.36,1510.13,512.6,1508.3,516.03,1506.95z"/>
	<g>
		<path fill="#FCFCFB" stroke="#FCFCFB" stroke-width="0.3" d="M855.21,540.53c1.71,1.0699,3.4401,2.12,5.24,3.0699
			c1.1901-2.46,2.24-4.98,3.54-7.39C861.1899,537.9099,858.21,539.26,855.21,540.53z"/>
		<path fill="#FCFCFB" stroke="#FCFCFB" stroke-width="0.3" d="M897.62,593.9299c-5.76-1-11.7001-0.24-17.13,1.8501
			c2.4399,4.3101,4.78,8.6699,6.9399,13.1299C890.87,603.9399,894.1699,598.88,897.62,593.9299z"/>
		<path fill="#FCFCFB" stroke="#FCFCFB" stroke-width="0.3" d="M584.76,1394.29l-0.6799,0.01
			C575.99,1426.63,567.95,1458.98,560.02,1491.35c0.72,8.5701,1.72,17.1901,0.9299,25.8c9.75,10.53,13.49,26.21,9.1101,39.9299
			c-4.42,14.9301-18,26.53-33.4401,28.55c-3.49,13.79-6.86,27.61-10.3099,41.42c19.3799-2.03,38.8099-3.39,58.23-4.9501
			c-0.01-49.36-0.01-98.72-0.02-148.0699c0.1699-26.55-0.3501-53.11,0.26-79.64L584.76,1394.29z"/>
		<path fill="#FCFCFB" stroke="#FCFCFB" stroke-width="0.3" d="M716.35,1617.55c-0.0199-74.42-0.1-148.8401-0.15-223.26
			c-4.35-0.0801-8.6899-0.1001-13.03-0.04c-2.3499,74.6-4.7699,149.2-7.1599,223.8c6.47-0.16,13.01-0.9401,19.4199,0.2899
			c5.1301,0.89,10.3501,0.3201,15.53,0.4301c4.1801-0.13,8.54,0.5599,12.55-1.01C734.46,1617.42,725.4,1617.5601,716.35,1617.55z"/>
		<path fill="#FCFCFB" stroke="#FCFCFB" stroke-width="0.3" d="M472.73,1438.48c-0.4099,0-1.24-0.01-1.6499-0.01
			c-3.8701,9.2001-8.01,18.3-11.6,27.62c2.2099,34.53,2.9699,69.4401-2.4301,103.7101c-6.58,0.0499-13.18-0.3201-19.75,0.24
			c0.02,22.73,0.1201,45.45-0.06,68.1799c11.92-0.87,23.6-3.86,35.54-4.59c0.4099-0.12,1.22-0.35,1.63-0.47
			c-0.84,0.09-2.5,0.27-3.33,0.35c6.9099-21.5,13.6699-43.0601,20.5599-64.5701c0.74-2.5199,1.85-5.0099,1.7999-7.6599
			c-7.76-16.76-1.8999-38.14,12.9301-48.99c-1.3199-9.04-2.26-18.1801-4.7899-26.99C496.9,1467.27,486.62,1450.87,472.73,1438.48z"
			/>
		<path fill="#FCFCFB" stroke="#FCFCFB" stroke-width="0.3" d="M563.49,1101.15l-0.9199,1.45c-3.8401,28.25-7.78,56.5-11.3301,84.79
			c4.0601-7.85,7.99-15.76,12.02-23.61c1.8101-9.26,0.4399-18.8,0.8201-28.17c0.01-10.16-0.1501-20.3199,0.1099-30.47
			C564.01,1104.14,563.6599,1102.15,563.49,1101.15z"/>
		<path fill="#FCFCFB" stroke="#FCFCFB" stroke-width="0.3" d="M529.45,1347.91c-0.4299,3.38-1.3999,7.0299,0.4,10.22
			c5.7001,12.47,10.85,25.21,16.83,37.5599c5.54-18.0599,11.6401-35.96,16.9601-54.09c0.34-3.22,0.6-6.45,0.5499-9.6699
			c-0.1899-10.15-0.1599-20.29-0.1199-30.4301c0.0898-11.61,0.02-23.22,0-34.8199c-0.1001-10.16-0.1201-20.3101-0.05-30.4601
			c0.02-5.0599,0.1499-10.12-0.39-15.15c-8.36,19.0901-16.38,38.3401-24.5399,57.51
			C535.4,1301.62,532.8301,1324.8199,529.45,1347.91z"/>
		<path fill="#FCFCFB" stroke="#FCFCFB" stroke-width="0.3" d="M447.25,1362.8101c3.84,2.3099,8.28,3.37,12.4,5.1
			c3.38-6.65,6.86-13.24,10.0699-19.9701c0.0601-5.3099-0.28-10.59-0.5599-15.8799c-0.36-5.29,1.2899-10.5,3.9-15.04
			c1.9099-3.03,1.99-6.67,2.46-10.1c3.78-28.77,7.84-57.51,11.55-86.29c-5.1801,7.9399-10.23,15.97-15.3501,23.95
			c0.71,6.39-0.8199,12.7201-1.2,19.0801c-0.3,4.62-2.74,8.6599-3.87,13.08c-2.75,10.59-7.05,20.88-13.34,29.87
			c-11.51,16.9401-27.47,30.99-46.35,39.13c-2.24,3.52-4.48,7.05-6.79,10.54c1.46,0.9,3.08,1.6,4.85,1.48
			c13.31,0.08,26.64-0.37,39.94,0.09C445.84,1359.4301,446.39,1361.1899,447.25,1362.8101z"/>
		<path fill="#FCFCFB" stroke="#FCFCFB" stroke-width="0.3" d="M457.44,1160.35c0.17,0.3101,0.49,0.9401,0.65,1.25
			c4.5899,7.2101,7.7601,15.23,10.06,23.4301c0.98,2.1599,1.85,4.36,2.6801,6.59c8.2899-10.96,16.5-21.98,24.6599-33.04
			c3.0801-22.47,6.0801-44.9399,9.14-67.4099c-18.24,19.83-36.66,39.48-54.86,59.34c2.99,2.25,5.31,5.22,6.98,8.5599
			C456.92,1159.39,457.27,1160.03,457.44,1160.35z"/>
		<path fill="#FCFCFB" stroke="#FCFCFB" stroke-width="0.3" d="M347.1,1357.51c0.87-1.14,1.74-2.27,2.61-3.38
			c-22.9-2.89-44.82-13.25-61.35-29.4c-7.84,8.46-15.6899,16.9301-23.52,25.41c7.12,3.02,14.11,7.65,22.13,7.27
			c18.34-0.2001,36.69,0.1,55.03-0.15c3.4-0.17,6.51,1.6799,9.92,1.51c15.92-0.05,31.84-0.09,47.7599-0.03
			c-0.09-0.3099-0.25-0.9299-0.33-1.23C381.93,1357.4399,364.52,1357.4399,347.1,1357.51z"/>
		<path fill="#FCFCFB" stroke="#FCFCFB" stroke-width="0.3" d="M272.35,1411.72c-15.81-5.4399-31.45-11.6599-45.96-20.02
			c-14.84,15.8201-29.41,31.89-44.3,47.66c18.15,22.13,36.43,44.15,54.81,66.09c11.04-14.9099,22.12-29.7799,33.27-44.6
			c0.81-15.34,2.4399-30.61,4.04-45.88C274.64,1413.42,273.93,1412.05,272.35,1411.72z"/>
		<path fill="#FCFCFB" stroke="#FCFCFB" stroke-width="0.3" d="M365.86,1120.24l-0.22,0.87c11.3-0.09,22.63-0.38,33.92,0.16
			c3.1,0.0599,5.96,1.35,8.7,2.6799c5.94,2.4401,12.07,4.5801,17.63,7.8501c26.28-24.14,52.3199-48.54,78.6-72.6801
			c0.71-1.39,1.04-2.92,1.15-4.45c0.62-9.26,2.3099-18.41,2.9401-27.67c0.1299-4.36,2.7799-8.43,1.8199-12.82
			C462.14,1049.42,414.04,1084.89,365.86,1120.24z"/>
		<path fill="#FCFCFB" stroke="#FCFCFB" stroke-width="0.3" d="M254.39,1202.22c-11.2,7.99-22.2,16.27-33.33,24.37
			c0.25,13.3101-6.57,26.3201-17.42,33.9701c1.87,10.49,2.92,21.2,6.53,31.3099c2.98,9.75,8.05,18.67,13.75,27.0699l0.7401,0.77
			c-0.05-0.2999-0.16-0.9099-0.22-1.21c12.59-11.71,25.28-23.3199,37.81-35.09c-1.5-4.3301-2.45-8.8-3.54-13.2201
			c-0.42-0.0099-1.25-0.0299-1.66-0.0399c-0.44-2.85-0.81-5.7101-1.06-8.5601c-0.25-2.39-0.53-4.75-0.73-7.12
			c-1.18-11.5699-1.2-23.2-1.17-34.8099C253.18,1213.8199,254.75,1208.03,254.39,1202.22z"/>
		<path fill="#FCFCFB" stroke="#FCFCFB" stroke-width="0.3" d="M183.9,1357.85c-17.67-20.0399-28.95-45.4399-32.74-71.83
			c-0.28-2.34-0.97-4.59-1.9-6.72c-15.07,11.24-30.38,22.1699-45.4,33.49c14.73,25.5399,29.22,51.23,43.87,76.8199
			c11.7401-10.9399,23.53-21.83,35.3-32.74L183.9,1357.85z"/>
		<path fill="#FCFCFB" stroke="#FCFCFB" stroke-width="0.3" d="M838.2,412.35v-0.0001
			c18.9301-69.9099,38.0801-139.7599,56.8801-209.7c14.6399-53.22,28.96-106.5199,43.48-159.7699
			c-24.92-8.0699-49.8701-16.0499-74.76-24.1901c-11.26,63.67-22.3701,127.3701-33.53,191.0601
			c-11.0801,63.05-22.17,126.09-33.13,189.1499c-5.25,29.1101-10.2001,58.28-15.39,87.4001c11.65,3.3899,21.21,11.0699,31.88,16.5
			C821.8301,472.6599,830.02,442.5,838.2,412.35z"/>
		<path fill="#FCFCFB" stroke="#FCFCFB" stroke-width="0.3" d="M965.5601,1403.05c-0.26,4.87,0.03,11.38-5.41,13.5499
			c-1.4601,6.02-2.3099,12.88-7.2201,17.24c-2.8899,2.7001-7,2.9-10.71,3.36c0.1101,0.7301,0.22,1.49,0.3501,2.27
			c3.1699,8.87,6.7999,17.5801,10.27,26.3401c7.5599-31.17,14.75-62.4301,22.25-93.6101c-2.4901-5.22-5.26-10.2899-7.77-15.49
			C966.64,1372.16,966.12,1387.6,965.5601,1403.05z"/>
		<path fill="#FCFCFB" stroke="#FCFCFB" stroke-width="0.3" d="M1085.35,1356.74c-0.9-1.12-1.7999-2.25-2.6699-3.34
			c-23.25,2.96-47.4401-1.65-67.7401-13.4301c-9.23-5.14-17.27-12.0599-24.7899-19.4c7.09,12.1101,14.45,24.0601,21.59,36.14
			c4.3301,0.1001,8.6699,0.0801,13.01,0.0901C1044.9399,1356.6801,1065.14,1356.76,1085.35,1356.74z"/>
		<path fill="#FCFCFB" stroke="#FCFCFB" stroke-width="0.3" d="M962.72,1193.0601c-6.58-8.5701-12.9199-17.3401-19.52-25.89
			c4.0601,32.2799,8.5901,64.51,12.96,96.76c3.8501,6.73,7.9601,13.2999,11.9202,19.97c-1.3201-4.48-2.4501-9-3.6801-13.49
			c-2.42-3.36-1.7301-7.86-2.35-11.75c-0.27-2.48-0.5801-4.9301-0.75-7.39c-0.16-1.9501-0.28-3.9-0.3-5.8201
			c-0.72-11-0.76-22.0499,0.01-33.0399C961.0701,1205.92,962.03,1199.49,962.72,1193.0601z"/>
		<path fill="#FCFCFB" stroke="#FCFCFB" stroke-width="0.3" d="M873.74,1264.7c11.3,29.29,22.89,58.4701,34.45,87.66
			c-0.6099-10.16-2.6199-20.17-3.76-30.27c-5.4399-40.1899-10.77-80.39-16.27-120.58c-4.5099-8.74-8.9199-17.53-13.47-26.24
			c-1.01,1.37-1.78,2.9399-1.6599,4.71c-0.1801,18.34,0.05,36.6801-0.0901,55.01C873.28,1244.89,872.13,1254.89,873.74,1264.7z"/>
		<path fill="#FCFCFB" stroke="#FCFCFB" stroke-width="0.3" d="M933.97,1064.55c-1.5,0.12-3.01,0.2799-4.48,0.5299
			c1.91,17.2301,4.52,34.39,6.77,51.5801c12.77,14.74,25.59,29.4399,38.4099,44.15c7.75-12.41,19.1001-22.3401,31.9701-29.1801
			C982.4099,1109.28,958.11,1087.01,933.97,1064.55z"/>
		<path fill="#FCFCFB" stroke="#FCFCFB" stroke-width="0.3" d="M810.71,7.6699C784.97,5.25,759.23,2.8101,733.5,0.3401
			c-1.72,87.4299-3.75,174.8499-5.29,262.2799c-1.04,35.5599-1.5,71.15-2.3199,106.72c-0.65,30.4601-1.3099,60.92-1.87,91.39
			c5,8.5801,4.29,18.95,2.0701,28.26c10.1599-3.97,20.97-6.37,31.9099-6.45c3.04-27.6901,6.1899-55.3601,9.1799-83.05
			c6.3201-56.64,12.67-113.26,18.8401-169.9099C794.35,155.62,802.48,81.64,810.71,7.6699z"/>
		<path fill="#FCFCFB" stroke="#FCFCFB" stroke-width="0.3" d="M690.03,249.36c-3.41-82.74-6.89-165.47-10.3401-248.2001
			c-25.6799,3.1901-51.3499,6.53-77.03,9.7001C613.0601,89.09,623.37,167.3301,633.8101,245.55
			C644.3,325.1899,654.86,404.83,665.48,484.45c11.55-1.9099,23.03-4.54,33.98-8.74C696.4,400.25,693.22,324.8,690.03,249.36z"/>
		<path fill="#FCFCFB" stroke="#FCFCFB" stroke-width="0.3" d="M546,288.4399C566.0701,356.47,586.12,424.5,606.25,492.51
			c11.26-3.47,23.0701-4.0601,34.74-4.99c0.05-0.55,0.16-1.65,0.21-2.2C627.2,416.05,613.79,346.6599,600,277.35
			c-7.71-38.9401-15.3201-77.89-23.0901-116.8099C568,114.86,558.8,69.24,549.96,23.55C525.12,32.1799,500.4299,41.21,475.64,49.97
			c14.0399,47.8,28.2001,95.5601,42.2799,143.3501C527.28,225.03,536.63,256.74,546,288.4399z"/>
		<path fill="#FCFCFB" stroke="#FCFCFB" stroke-width="0.3" d="M518.9299,454.02c12.8401,26.71,25.6501,53.4399,38.53,80.13
			c0.8-0.36,1.5901-0.7201,2.39-1.08c4.4301-12.1602,12.7001-22.8901,23.4601-30.1101c-8.1401-21.8-16-43.71-24.16-65.5
			c-27.08-73.99-54.33-147.9099-81.48-221.8799C460.29,168.3999,443,121.1799,425.62,74c-23.04,14.01-45.93,28.26-68.99,42.24
			c19.58,41.0601,39.41,82.01,59.07,123.04C450.11,310.86,484.52,382.4399,518.9299,454.02z"/>
		<path fill="#FCFCFB" stroke="#FCFCFB" stroke-width="0.3" d="M459.8,503.37c18.23,25.67,36.48,51.33,54.73,76.99
			c6.8-10.2699,15.3999-19.2899,25.04-26.9401c-0.78-1.49-1.5801-2.96-2.3701-4.4299c-7.77-2-13.5599-8.6599-14.8799-16.52
			c2.6599,1.6899,5.3398,3.4,8.2999,4.54c-12.41-20.8101-24-42.14-36.11-63.14c-37.08-65.2101-74.02-130.5-111.18-195.66
			C359.28,235.79,335.31,193.3,311.02,151.03c-20.58,18.77-40.96,37.79-61.43,56.7c27.9,39.03,55.61,78.1899,83.43,117.27
			C375.27,384.47,417.54,443.9099,459.8,503.37z"/>
		<path fill="#FCFCFB" stroke="#FCFCFB" stroke-width="0.3" d="M927.15,469.88c-13.9501,25.98-27.9,51.97-41.89,77.9301
			c6.73-1.3,12.71-4.8201,18.14-8.8801c-5.41,11.8701-13.7101,23.1001-25.8099,28.74c9.49,4.6401,18.2799,11.1602,24.1799,20.0601
			c21.6599-32.12,43.36-64.22,65.02-96.34c-0.1089-0.1875-0.2617-0.451-0.4214-0.726c0.1597,0.2749,0.3126,0.5385,0.4214,0.726
			c38.54-57.09,77.09-114.17,115.61-171.26c28.49-42.14,56.86-84.36,85.4199-126.4401c-20.86-18.34-41.73-36.6899-62.72-54.8799
			c-28.15,52.45-56.35,104.8799-84.5399,157.3099C989.4199,354.04,958.3101,411.97,927.15,469.88z"/>
		<path fill="#FCFCFB" stroke="#FCFCFB" stroke-width="0.3" d="M835.6699,512.9399c11.03,4.3701,22.3901,7.91,34.01,10.3401
			c26.78-58.91,53.4501-117.8801,80.1301-176.8401C973.27,294.74,996.6699,243,1020.11,191.28
			c12.97-28.53,25.76-57.14,38.85-85.6001C1035.72,92.12,1012.3401,78.8,989,65.4c-11.52,33.7599-23.12,67.49-34.6599,101.23
			C935.21,222.4099,916.14,278.2,897,333.97C876.5601,393.63,856.1699,453.3,835.6699,512.9399z"/>
		<path fill="#FCFCFB" stroke="#FCFCFB" stroke-width="0.3" d="M392.38,548.74c38.52,37.63,77.1801,75.14,115.78,112.6899
			c1.11-11.46,3.1801-22.8099,5.88-34c-4.72,1.9401-8.6899,5.26-12.0601,9.03c-0.75,0.8301-1.5,1.66-2.23,2.51
			c-0.24-5.49-0.35-10.99,0.22-16.46c0.28-5.64,1.4-11.21,2.92-16.64c-27.17-32.8099-54.28-65.6801-81.44-98.5
			c-40.69-49.2201-81.37-98.4501-122.06-147.67c-29.81-35.98-59.49-72.08-89.36-108.02c-17.2401,23.1301-34.52,46.24-51.81,69.3301
			c31.79,30.8101,63.45,61.76,95.23,92.59C299.74,458.6599,346.01,503.75,392.38,548.74z"/>
		<path fill="#FCFCFB" stroke="#FCFCFB" stroke-width="0.3" d="M979.14,527.99c-27.35,34.74-54.5599,69.5901-81.99,104.26
			c4.0699,11.78,7.0399,23.95,8.67,36.3201c33.75-34.6301,67.5999-69.1501,101.2799-103.8401
			c54.2101-55.39,108.29-110.9099,162.4401-166.36c30.6799-31.42,61.34-62.88,92.0399-94.28
			c-17.88-22.49-35.5299-45.16-53.38-67.6801C1174.04,280,1139.77,323.5,1105.6,367.0701
			C1063.41,420.6899,1021.3,474.36,979.14,527.99z"/>
		<path fill="#FCFCFB" stroke="#FCFCFB" stroke-width="0.3" d="M1010.3101,604.79C975.97,634.87,941.62,664.9399,907.4,695.15
			c-0.13,7.61-0.7201,15.21-1.63,22.7599c3.6499,1.75,6.98,4.1501,9.77,7.1001c43.99-30.37,87.9199-60.8301,131.88-91.25
			c45.85-31.74,91.7-63.46,137.5399-95.2C1235.63,503.4299,1286.41,468.45,1337.02,433.23c-14.17-25.98-28.13-52.0701-42.15-78.14
			c-52.84,46.1801-105.49,92.5699-158.27,138.8199C1094.51,530.87,1052.37,567.79,1010.3101,604.79z"/>
		<path fill="#FCFCFB" stroke="#FCFCFB" stroke-width="0.3" d="M426.62,674.89c27.91,18.16,55.75,36.4501,83.7201,54.51l0.98,0.6
			c-2.51-13.25-4.16-26.6899-4.29-40.1799c-20.24-16.9001-40.52-33.73-60.79-50.5901c-57.25-47.6-114.47-95.25-171.74-142.8101
			C225,455.24,175.52,414.05,125.98,372.9299c-13.47,26.49-26.86,53.04-40.48,79.4501c51.12,33.48,102.35,66.77,153.52,100.16
			C301.54,593.35,364.09,634.1,426.62,674.89z"/>
		<path fill="#FCFCFB" stroke="#FCFCFB" stroke-width="0.3" d="M281.3,694.1c49.4901,19.3199,98.9901,38.5699,148.48,57.87
			c27.27,10.6,54.5,21.3101,81.8101,31.82c-2.02-9.5099-1.4102-20.02,4.45-28.13C492.97,743.2,469.92,730.7,446.8,718.35
			c-49.5-26.8199-99.09-53.47-148.6299-80.22c-40.1801-21.59-80.26-43.39-120.4901-64.89c-38.57-21.01-77.33-41.6799-115.92-62.65
			c-9.3,29.03-18.63,58.0601-27.74,87.16c39.42,15.37,78.85,30.72,118.27,46.0801C195.29,660.6,238.3,677.35,281.3,694.1z"/>
		<path fill="#FCFCFB" stroke="#FCFCFB" stroke-width="0.3" d="M1031.38,681.3401C995.55,701.95,959.76,722.63,923.9399,743.26
			c1.25,10.23-3.08,21.09-11.5599,27.11c-7.87,5.95-18.7101,6.41-27.73,3.01c-2.12,7.22-4.67,14.29-7.2001,21.37
			c61.42-25.85,122.75-51.95,184.1101-77.95C1120.45,691.88,1179.33,666.9199,1238.21,641.96
			c51.14-21.6399,102.24-43.3699,153.4-64.95c-9.79-28.78-19.76-57.5-29.59-86.26c-53.75,30.9399-107.46,61.9299-161.1801,92.9099
			C1144.34,616.2,1087.86,648.77,1031.38,681.3401z"/>
		<path fill="#FCFCFB" stroke="#FCFCFB" stroke-width="0.3" d="M1024.25,763.3c-51.99,16.74-103.96,33.57-155.86,50.58
			c-4.24,8.17-9.11,16.01-14.49,23.48c64.1901-12.09,128.39-24.08,192.5599-36.26c69.63-13.03,139.25-26.14,208.86-39.29
			c56.12-10.49,112.2001-21.12,168.3201-31.6201c-5.37-30.4099-10.72-60.83-16.09-91.24c-58.66,18.91-117.25,38.02-175.88,57
			C1162.53,718.4099,1093.35,740.73,1024.25,763.3z"/>
		<path fill="#FCFCFB" stroke="#FCFCFB" stroke-width="0.3" d="M292.49,796.91c49.12,7.79,98.26,15.47,147.41,23.14
			c48.65,7.67,97.3099,15.4,146,22.86c-5.5-7.59-12.01-14.43-17.0599-22.37c-35.6501-10.52-71.3301-20.93-107.04-31.24
			c-50.45-14.85-100.9401-29.51-151.42-44.24c-48.41-14.16-96.85-28.2499-145.26-42.41c-48.58-14.17-97.19-28.27-145.73-42.58
			C14.48,690.6,10,721.21,5.17,751.75c49.05,7.92,98.16,15.51,147.26,23.16C199.1,782.35,245.79,789.63,292.49,796.91z"/>
		<path fill="#FCFCFB" stroke="#FCFCFB" stroke-width="0.3" d="M1042.4301,831.94c-62.7101,5.85-125.39,12.07-188.09,18.02
			c-3.9601,0.53-8.04,0.39-11.8801,1.55c-5.0599,5.47-10.3699,10.73-16.04,15.59c86.0801,3.02,172.1602,5.98,258.2401,8.83
			c41.25,1.48,82.5,2.93,123.76,4.24c74.5,2.62,149.01,5.15,223.51,7.66c-0.7001-31.08-1.27-62.18-2.1101-93.26
			c-74.0299,7.18-148.0699,14.19-222.1,21.44C1152.62,821.22,1097.51,826.51,1042.4301,831.94z"/>
		<path fill="#FCFCFB" stroke="#FCFCFB" stroke-width="0.3" d="M303.6,889.95c44.13-2.53,88.22-5.71,132.34-8.44
			c22.53-1.55,45.08-2.82,67.61-4.46c37.7-2.3,75.3899-4.81,113.0699-7.32c-5.5699-4.8-11.66-8.95-17.01-14.01
			c-53.65-3.47-107.2799-7.15-160.93-10.47c-47.71-3.3-95.44-6.31-143.16-9.46c-55.32-3.56-110.62-7.41-165.96-10.78
			C86.39,822,43.19,819.2,0,816.5v93.04c43.85-2.36,87.66-5.6,131.5-8.32C188.87,897.45,246.25,893.95,303.6,889.95z"/>
		<path fill="#FCFCFB" stroke="#FCFCFB" stroke-width="0.3" d="M429.55,926.38c-33.96,7.52-67.97,14.85-101.89,22.53
			c-41.38,8.94-82.7,18.16-124.04,27.28c-39.29,8.59-78.56,17.31-117.84,25.93c-24.9901,5.57-50.02,10.96-74.9901,16.58
			c6.18,30.21,12.06,60.47,18.11,90.7c30.1-10.8301,60.22-21.5801,90.33-32.38c31.6801-11.3301,63.36-22.6901,95.03-34.04
			c42.86-15.39,85.77-30.62,128.58-46.12c38.34-13.59,76.62-27.38,114.91-41.14c52.79-18.81,105.54-37.74,158.29-56.7
			c8.0699-5.79,16.8699-10.52,26-14.42c-2.27-1.13-4.5-2.31-6.71-3.52C566.72,896.1,498.14,911.26,429.55,926.38z"/>
		<path fill="#FCFCFB" stroke="#FCFCFB" stroke-width="0.3" d="M1160.63,919.05c-61.22-7.72-122.4598-15.34-183.6901-23.01
			c-53.97-6.81-107.96-13.5-161.9399-20.29c-4.71,3.45-9.9,6.15-14.72,9.44c59.01,15.45,118.0898,30.64,177.1499,45.91
			c57.9701,15.01,115.91,30.13,173.92,44.98c38.4,10.1,76.87,19.93,115.3,29.92c49.86,12.9,99.71,25.8101,149.5699,38.72
			c4.0601-30.71,8.04-61.4399,12.16-92.14c-49.03-6.19-98.08-12.31-147.12-18.43C1241.0601,929.08,1200.85,924.05,1160.63,919.05z"
			/>
		<path fill="#FCFCFB" stroke="#FCFCFB" stroke-width="0.3" d="M536.86,945.44c-48.47,22.27-96.96,44.51-145.42,66.79
			c-48.8,22.4301-97.62,44.79-146.39,67.26c-33.21,15.1901-66.39,30.46-99.57,45.7c-33.12,15.2001-66.22,30.42-99.34,45.6101
			c10.47,28.4099,21,56.8099,31.45,85.23c20.96-12.8101,41.89-25.6901,62.77-38.63c2.82-12,11.38-22.4501,22.59-27.5601
			c8.22-3.9099,17.7-4.7,26.55-2.76c0.53-0.2999,1.58-0.89,2.11-1.1899c29.94-18.38,59.85-36.8,89.75-55.23
			c45.27-27.78,90.45-55.6901,135.71-83.49c34.16-21.16,68.56-41.97,102.5999-63.33c4.9001-13.02,11.0901-25.69,20.03-36.45
			C538.74,946.73,537.8,946.08,536.86,945.44z"/>
		<path fill="#FCFCFB" stroke="#FCFCFB" stroke-width="0.3" d="M1133.49,1011.84c-44.62-15.97-89.3099-31.77-133.97-47.64
			c-60.73-21.62-121.48-43.19-182.23-64.76c8.4299,8.42,16.25,17.55,22,28.06c0.11-1.16,0.24-2.3,0.3699-3.44
			c17.55-0.53,36.29,3.64,49.6401,15.68c4.27,4.38,8.98,8.42,12.3899,13.55c1.29,1.81,2.6101,3.62,3.92,5.44
			c26.74,13.51,53.5599,26.88,80.33,40.36c47.66,23.92,95.3101,47.8799,142.9701,71.82c28.0499,14.0399,56.09,28.13,84.12,42.22
			c54.7,27.41,109.34,54.95,164.0399,82.37c8.5801-29.33,17.2401-58.63,25.8501-87.95c-59.65-21.17-119.25-42.4801-178.9501-63.53
			C1193.86,1033.16,1163.67,1022.51,1133.49,1011.84z M995.4031,969.4014c0.3458-0.9095,0.7281-1.8076,1.157-2.6913
			C996.1313,967.5938,995.749,968.4919,995.4031,969.4014z"/>
		<path fill="#FCFCFB" stroke="#FCFCFB" stroke-width="0.3" d="M1174.41,1187.4301c2.09,12.9099,3.0699,25.99,3.1799,39.0699
			c16.16,12.84,32.49,25.47,48.64,38.34c0.6-1.6,1.2001-3.1799,1.77-4.77c-11.7-8.1799-18.64-22.6899-17.21-36.95
			c1.12-17.74,15.3099-33.4,32.73-36.65c-27.1901-16.75-54.48-33.33-81.6801-50.0599c-41.4299-25.3301-82.8199-50.6901-124.23-76.03
			c-38.97-23.86-77.9301-47.71-116.9-71.55c-1.1699,5.42,1.77,10.48,2.6301,15.73c2.24,8.59,3.6099,17.36,5.1599,26.09
			c29.0701,22.98,58.24,45.8199,87.36,68.74c8.8201,7.04,17.87,13.8199,26.55,21.0499c2.39,1.0801,5.0699,0.8,7.65,0.8401
			c16.98-0.0801,33.97,0.02,50.95-0.0601c5.29-0.1799,10.2,2.1,15.13,3.6801c10.9,3.89,21.26,9.4,30.27,16.6899
			C1160.54,1153.17,1170.36,1169.66,1174.41,1187.4301z"/>
		<path fill="#FCFCFB" stroke="#FCFCFB" stroke-width="0.3" d="M1282.6899,1252.91c0.3201,17.26-1.6899,34.62-6.37,51.25
			c13.16,10.2899,26.2301,20.7,39.4301,30.95c12.9399-26.87,25.7-53.8199,38.75-80.63c-21.15-13.1799-42.47-26.0599-63.71-39.08
			C1294.36,1228.26,1291.35,1242.71,1282.6899,1252.91z"/>
		<path fill="#FCFCFB" stroke="#FCFCFB" stroke-width="0.3" d="M1207.99,1317.4c-12.73-11.8-25.53-23.52-38.25-35.3201
			c-7.1799,22.29-22.37,41.77-41.9299,54.5901c5.84,6.7,11.62,13.4399,17.5299,20.08c2.2201-0.05,4.53,0.05,6.66-0.77
			C1173.26,1347.78,1194.3101,1336.17,1207.99,1317.4z"/>
		<path fill="#FCFCFB" stroke="#FCFCFB" stroke-width="0.3" d="M1183.37,1401.5601c0.95,0.2999,1.75,0.85,2.4,1.6399
			c16.11,18.65,32.4,37.14,48.49,55.8c16.87-23.6,33.5699-47.3199,50.39-70.96c-11.84-10.8401-23.64-21.73-35.4-32.65
			C1231.62,1375.98,1208.35,1391.37,1183.37,1401.5601z"/>
		<path fill="#FCFCFB" stroke="#FCFCFB" stroke-width="0.3" d="M873.85,1358.33c-0.7699,1.8501-1.0399,3.8401-0.99,5.8501
			c0.12,9.98,0.03,19.96,0.09,29.9399c-5.26,0.2-10.53,0.05-15.79,0.11c0.1702,37.16-0.1899,74.3201,0.1501,111.48
			c1.22,5.9401,2.52,11.86,3.8599,17.78c7.2301,32.98,14.53,65.95,21.78,98.9301c1.3201,1.38,3.17,1.86,5.05,1.95
			c24.54,1.98,49.01,4.72,73.45,7.65c-14.1599-44.1-28.22-88.23-42.33-132.35C904.01,1452.5601,889.0601,1405.4,873.85,1358.33z"/>
		<path fill="#FCFCFB" stroke="#FCFCFB" stroke-width="0.3" d="M1162.14,1468.02c0.71,16,1.2999,32.02,0.74,48.04
			c-0.09,6.84-1.0601,13.6799-0.4401,20.5199c11.14-10.7699,22.26-21.5599,33.3201-32.4099
			c-11.15-14.6001-21.95-29.4701-33.15-44.03C1161.7,1462.67,1161.99,1465.38,1162.14,1468.02z"/>
		<path fill="#FCFCFB" stroke="#FCFCFB" stroke-width="0.3" d="M1097.38,1568.5699c-11.46-1.22-22.96,0.4-34.4401,0.13
			c-7,0.03-13.99-0.1-20.99,0.1001c-1.9099,21.8099-3.71,43.63-5.36,65.46c18.0801-11.71,36.03-23.63,54.14-35.3
			c-5.0499-10.14-10.25-20.21-15.4199-30.2899C1082.66,1568.6,1090.02,1568.77,1097.38,1568.5699z"/>
		<path fill="#FCFCFB" stroke="#FCFCFB" stroke-width="0.3" d="M334.35,1570.0699c-0.15,7.4601-1.4901,14.8601-1.4,22.3301
			c3.02,2.49,6.01,5.01,9.07,7.47c4.75-9.53,9.64-19,14.41-28.52l-0.06-1.47C349.03,1569.86,341.67,1569.49,334.35,1570.0699z"/>
		<path fill="#FCFCFB" stroke="#FCFCFB" stroke-width="0.3" d="M388.95,1631.66c1.97,1.0399,3.95,2.0599,5.89,3.2
			c0.2-4.37,1-9.58-1.65-13.3199C391.76,1624.9,390.29,1628.25,388.95,1631.66z"/>
	</g>
	<path fill="#3DA3B9" stroke="#3DA3B9" stroke-width="0.3" d="M942.93,1708.9399c17.36-7.46,34.52-15.36,51.9-22.7799
		c12.47-0.0701,24.96,0.4,37.44,0.23c-0.65,8.0499-1.02,16.14-2.0601,24.15c-27.05-0.16-54.11,0-81.16-0.0801
		c-2.91-0.0299-5.81-0.02-8.69,0.26C941.09,1709.97,941.92,1709.28,942.93,1708.9399z"/>
	<path fill="#3DA3B9" stroke="#3DA3B9" stroke-width="0.3" d="M1106.9301,1686.41c12.5699,0.1599,25.1499-0.38,37.72-0.1901
		c11.38,4.92,22.6899,10.03,34.0499,15.01c6.75,3.22,13.9,5.65,20.4,9.36c-30.03-0.22-60.0699-0.11-90.1-0.0599
		C1107.98,1702.52,1107.59,1694.45,1106.9301,1686.41z"/>
	<path fill="#3DA3B9" stroke="#3DA3B9" stroke-width="0.3" d="M232.77,1711.72c18.02-8.2,36.15-16.22,54.34-24.03
		c12.62-0.3199,25.28,0.2201,37.91,0.2401c-0.85,7.9399-1.23,15.9399-2.07,23.8999C292.89,1711.74,262.82,1711.96,232.77,1711.72z"
		/>
	<path fill="#3DA3B9" stroke="#3DA3B9" stroke-width="0.3" d="M399.82,1687.91c12.4-0.05,24.8-0.41,37.2-0.3101
		c7.76,2.75,15.13,6.6,22.74,9.77c10.73,4.84,21.61,9.36,32.25,14.38c-30.09,0.21-60.19-0.0699-90.29,0.14
		C401,1703.9,400.27,1695.91,399.82,1687.91z"/>
	<path fill="#FFF0EF" stroke="#FFF0EF" stroke-width="0.3" d="M940.36,1710.72c2.88-0.28,5.78-0.2899,8.69-0.26
		c27.05,0.0801,54.11-0.08,81.16,0.0801l-0.39,1.1799c-18.6099,0.41-37.2499,0.0801-55.8699,0.2101c-11.48-0.25-23,0.38-34.45-0.37
		L940.36,1710.72z"/>
	<path fill="#FFF0EF" stroke="#FFF0EF" stroke-width="0.3" d="M1109,1710.53c30.03-0.05,60.0699-0.16,90.1,0.0599l-0.26,1.1
		c-6.2999,0.42-12.61,0.0901-18.9,0.1901c-23.5699-0.13-47.1599,0.29-70.72-0.16L1109,1710.53z"/>
	<path fill="#3BA990" stroke="#3BA990" stroke-width="0.3" d="M736.88,1714.9399c3.91-0.0099,7.84,0.01,11.76-0.0199
		c36.15-0.0701,72.3-0.0601,108.45-0.03c4.0699,0.0499,8.14,0.0499,12.22,0.0499c-0.03,13.9801,0.07,27.9601-0.05,41.9401
		c-11.63-0.14-23.27-0.04-34.89-0.0601c-18.77,0-37.54,0-56.3,0c-13.72,0-27.43-0.0299-41.14,0.02
		C736.81,1742.87,736.92,1728.9,736.88,1714.9399z"/>
	<path fill="#F8B57E" stroke="#F8B57E" stroke-width="0.3" d="M607.16,1756.8199c18.83,0,37.67,0,56.5,0
		c-0.1,5.37-0.35,10.77,0.34,16.13c-0.39,1.4501-0.66,3.0701-1.78,4.2001c-4.33,4.91-10.47,9.12-17.31,8.5
		c-7.04-0.59-12.95-5-17.95-9.65c-6.09-5.3199-12.45-10.48-19.79-13.98C607.16,1760.27,607.15,1758.53,607.16,1756.8199z"/>
	<path fill="#F8B57E" stroke="#F8B57E" stroke-width="0.3" d="M778.07,1756.8199c18.76,0,37.53,0,56.3,0
		c-0.01,1.7301-0.01,3.4801-0.01,5.26c-8.53,4.0801-15.69,10.4-22.74,16.5901c-4.89,4.14-11.11,7.5199-17.71,6.95
		c-5.69-0.52-10.52-4.14-14.28-8.1899c-1.09-1.0601-1.44-2.5601-1.84-3.92C778.26,1767.95,778.07,1762.38,778.07,1756.8199z"/>
	<path fill="#555555" stroke="#555555" stroke-width="0.3" d="M591.68,1768.41c2.44-2.9601,5.11-5.73,7.41-8.8
		c2.75,0.55,5.5099,1.24,8.08,2.41c7.34,3.5,13.7,8.66,19.79,13.98c5,4.65,10.91,9.0601,17.95,9.65c6.84,0.62,12.98-3.59,17.31-8.5
		c1.1201-1.13,1.39-2.75,1.78-4.2001c1.39-2.25,4.22-4.83,6.95-2.95c3.01,1.9399,2.43,5.96,3.2,9.01
		c1.47,6.95,4.09,13.63,5.06,20.71c-0.27,3.41-1.18,7.35-4.53,9.03c-20.25,11.42-42.26,19.37-64.58,25.66
		c-11.48,4.1599-23.33,7.7899-35.59,8.58c-4.32-1.5599-8.95-0.73-13.43-0.95c-2.26-0.15-4.49,0.25-6.62,0.96
		c-8.8-0.55-17.43-2.77-25.73-5.65c-5.43-1.9299-11.17-4.09-14.89-8.74c-3.33-7.33,1.48-15.09,6.33-20.4299
		c11.66-11.6901,27.87-16.6801,42.81-22.66c4.87,0.0699,9.65,1.1799,14.49,1.74c-0.0699,4.11-0.0699,8.22-0.09,12.35
		c2.04-0.01,4.08,0.01,6.13,0.04c0-4.0601-0.01-8.11-0.03-12.15c3.25,0.88,6.51,1.74,9.77,2.62c0.06-3.5,0.14-7,0.26-10.48
		c4.72-0.7001,9.44-1.39,14.16-2.0601C602.5,1774.26,597.05,1771.39,591.68,1768.41z"/>
	<path fill="#555555" stroke="#555555" stroke-width="0.3" d="M834.36,1762.08c2.63-1.26,5.46-1.97,8.33-2.3999
		c1.93,2.75,4.24,5.2,6.5,7.6899c-0.07,0.45-0.22,1.36-0.3,1.8101c-5.1,2.5199-10.1,5.2899-14.85,8.4199
		c4.71,0.65,9.43,1.29,14.12,2.14c0.02,3.46,0.1,6.9401,0.27,10.42c3.18-0.66,6.35-2.4,9.59-2.2101
		c0.22,3.8501,0.01,7.7301-0.01,11.6101c2.05,0.0199,4.12,0.0499,6.19,0.11c-0.01-4.16-0.01-8.3-0.03-12.4401
		c4.44-0.62,8.91-1.16,13.35-1.87c12.59,4.4301,25.37,8.97,36.47,16.55c6.56,4.46,12.43,10.63,14.59,18.45
		c0.8,2.6801,0.33,5.54-0.71,8.11c-4.68,5.91-12.29,7.92-19.1,10.27c-23.18,7.48-48.64,5.9-71.39-2.3
		c-6.66-2.5599-13.61-4.1599-20.37-6.3899c-17.27-5.54-34.2-12.38-50.02-21.28c-2.31-1.2001-3.53-3.59-4.31-5.9401
		c-0.57-9.3199,4.3-17.76,5.28-26.87c0.15-2.64,1.11-5.87,4.06-6.5c2.73-0.58,4.66,1.91,5.77,4.05c0.4,1.36,0.75,2.86,1.84,3.92
		c3.76,4.0499,8.59,7.6699,14.28,8.1899c6.6,0.5699,12.82-2.8099,17.71-6.95C818.67,1772.48,825.83,1766.16,834.36,1762.08z"/>
	<path fill="#FDFDFD" stroke="#FDFDFD" stroke-width="0.3" d="M849.19,1767.37c1.07,1.25,2.15,2.49,3.41,3.62
		c-2.9,1.63-5.88,3.12-8.74,4.84c3.77-0.85,7.48-1.98,11.28-2.75c1.7,1.4501,3.48,2.8301,5.4,4.01c-2.82,0.78-5.64,1.54-8.48,2.24
		c0.18,1.39,0.37,2.8101,0.58,4.24c5.41-0.4099,10.83-0.95,16.27-1c3.19,1.2401,6.6,1.65,9.98,2.05
		c-0.34,0.1801-1.03,0.5601-1.37,0.74c-4.44,0.71-8.91,1.25-13.35,1.87c0.02,4.14,0.02,8.28,0.03,12.4401
		c-2.07-0.0601-4.14-0.0901-6.19-0.11c0.02-3.88,0.23-7.76,0.01-11.6101c-3.24-0.1899-6.41,1.55-9.59,2.2101
		c-0.17-3.48-0.25-6.9601-0.27-10.42c-4.69-0.85-9.41-1.49-14.12-2.14c4.75-3.13,9.75-5.9,14.85-8.4199
		C848.97,1768.73,849.12,1767.8199,849.19,1767.37z"/>
	<path fill="#FDFDFD" stroke="#FDFDFD" stroke-width="0.3" d="M589.46,1771.17c0.74-0.9401,1.48-1.86,2.22-2.76
		c5.37,2.98,10.82,5.85,15.99,9.1699c-4.72,0.67-9.44,1.36-14.16,2.0601c-0.12,3.48-0.2,6.98-0.26,10.48
		c-3.26-0.88-6.52-1.74-9.77-2.62c0.02,4.04,0.03,8.09,0.03,12.15c-2.05-0.03-4.09-0.05-6.13-0.04c0.02-4.13,0.02-8.24,0.09-12.35
		c-4.84-0.5601-9.62-1.67-14.49-1.74l0.93-0.87c2.91-0.64,5.9-0.97,8.67-2.14c5.49,0.13,10.97,0.66,16.45,1.04
		c0.14-1.4601,0.29-2.9,0.4399-4.3101c-2.74-0.6-5.43-1.38-8.11-2.14c1.88-1.14,3.54-2.5699,5.15-4.0499
		c3.87,0.83,7.66,1.97,11.53,2.8199C595.18,1774.3,592.29,1772.78,589.46,1771.17z"/>
	<path fill="#3C2515" stroke="#3C2515" stroke-width="0.3" d="M586.51,1773.05c0.87-0.8101,1.81-1.53,2.95-1.88
		c2.83,1.61,5.72,3.13,8.58,4.7C594.17,1775.02,590.38,1773.88,586.51,1773.05z"/>
	<path fill="#3C2515" stroke="#3C2515" stroke-width="0.3" d="M843.86,1775.83c2.86-1.72,5.84-3.21,8.74-4.84
		c0.83,0.6801,1.69,1.37,2.54,2.09C851.34,1773.85,847.63,1774.98,843.86,1775.83z"/>
	<path fill="#565656" stroke="#565656" stroke-width="0.3" d="M572.58,1782.51c2.85-1.92,5.71-3.85,8.78-5.41
		c2.68,0.76,5.37,1.54,8.11,2.14c-0.15,1.41-0.3,2.85-0.4399,4.3101C583.55,1783.17,578.07,1782.64,572.58,1782.51z"/>
	<path fill="#555555" stroke="#555555" stroke-width="0.3" d="M860.54,1777.09c2.87,1.7001,5.68,3.5,8.37,5.48
		c-5.44,0.05-10.86,0.5901-16.27,1c-0.21-1.4299-0.4-2.85-0.58-4.24C854.9,1778.63,857.72,1777.87,860.54,1777.09z"/>
	<path fill="#E0D4C8" stroke="#E0D4C8" stroke-width="0.3" d="M679.21,1799.72c5.11,6.72,6.78,16,4.64,24.13
		c-1.28,4.47-6.17,5.74-10.16,6.64c-25.06,5.42-47.93,17.5701-72.42,24.83c-20.51,6.03-42.37,5.6101-63.23,1.7101
		c-7.78-1.53-15.81-2.62-23.0099-6.13c-3.18-1.7001-6.61-4.12-7.23-7.92c-1.18-5.5599,2.16-10.74,6.04-14.37
		c3.72,4.65,9.46,6.8101,14.89,8.74c8.3,2.88,16.93,5.1,25.73,5.65c6.66,0.6899,13.39,0.6801,20.05-0.01
		c12.26-0.79,24.11-4.42,35.59-8.58c22.32-6.29,44.33-14.24,64.58-25.66C678.03,1807.0699,678.94,1803.13,679.21,1799.72z"/>
	<path fill="#E0D4C8" stroke="#E0D4C8" stroke-width="0.3" d="M760.43,1802.13c0.74,0.21,1.49,0.45,2.25,0.7
		c0.78,2.3501,2,4.74,4.31,5.9401c15.82,8.9,32.75,15.74,50.02,21.28c6.76,2.23,13.71,3.83,20.37,6.3899
		c22.75,8.2001,48.21,9.78,71.39,2.3c6.81-2.35,14.42-4.36,19.1-10.27c3.6,4.0901,7.66,9.4501,5.75,15.24
		c-2.36,6-9.06,8.38-14.76,10.0601c-19.83,4.84-40.47,7.79-60.86,5.16c-14.21-1.8-27.81-6.5901-41.08-11.8
		c-16.08-6.46-32.26-12.92-49.22-16.67c-3.76-0.9299-8.65-2.0599-9.87-6.3199C755.59,1816.8,757.48,1808.98,760.43,1802.13z"/>
	<path fill="#424445" stroke="#424445" stroke-width="0.3" d="M554.46,1843c2.13-0.71,4.36-1.11,6.62-0.96
		c4.48,0.22,9.11-0.61,13.43,0.95C567.85,1843.6801,561.12,1843.6899,554.46,1843z"/>
	<path fill="#F6F7F8" stroke="#F6F7F8" stroke-width="0.3" d="M699.48,1919.26c4.02-1.46,8.34-1.1,12.54-1.16
		c6.99-0.08,13.98-0.0499,20.97,0.03c3.53,0.04,7.22-0.34,10.55,1.14C728.86,1919.52,714.16,1919.51,699.48,1919.26z"/>
</g>
</svg>
